<svg
   width="199.82812mm"
   height="654.28912mm"
   viewBox="0 0 199.82812 654.28913"
   version="1.1"
   id="svg1"
   xml:space="preserve"
  
  
   xmlns="http://www.w3.org/2000/svg"
  >
<!-- Pedestal com microfone: arte do usuario, usada como enviada. Sem emenda de
     tubo e sem recoloracao — so a limpeza dos metadados do Inkscape. A proporcao
     1:3,27 e resolvida pela pegada (2x5) em vez de cortar o desenho. --><defs
     id="defs1" /><g
     id="g1"
    
    
     transform="matrix(0.26458333,0,0,0.26458334,-2117.3038,-403.48386)"><g
       id="g95"
      
      
      ><path
         d="m 8365.7174,1567.8002 c -22.4737,-40.2634 -73.3697,-54.6955 -113.6331,-32.2218 -40.2634,22.4737 -54.6954,73.3696 -32.2218,113.633 22.4737,40.2634 80.7604,67.9812 121.0322,45.4779 40.2718,-22.5034 47.326,-86.6173 24.8227,-126.8891 z"
         fill="#9e9e9e"
         id="path1"
         style="stroke-width:3.0847" /><path
         d="m 8238.6542,1544.9481 c -7.3628,26.1919 -4.7755,55.1732 9.5421,80.7796 22.665,40.6062 67.9748,60.6043 111.3483,53.0562 -5.1184,6.4041 -11.315,11.8612 -18.6287,15.9435 -40.2634,22.4737 -98.5584,-5.2145 -121.0321,-45.4779 -19.7734,-35.4257 -11.0046,-79.0139 18.7704,-104.3014 z"
         fill="#757575"
         id="path2-7"
         style="stroke-width:3.0847" /><path
         d="m 8300.806,1726.1581 c -4.0823,-7.3137 12.2945,-24.2484 36.5592,-37.7921 24.2647,-13.5437 47.2752,-18.5937 51.3574,-11.28 2.1687,3.8854 113.6991,229.0763 114.8685,231.1713 4.0823,7.3137 -7.4568,21.5482 -25.7411,31.7538 -18.2842,10.2057 -36.457,12.5554 -40.5392,5.2417 -1.2075,-2.0738 -134.3361,-215.2093 -136.5048,-219.0947 z"
         fill="#616161"
         id="path3-1"
         style="stroke-width:3.0847" /><path
         d="m 8472.5687,1930.5939 -131.674,-235.9046 -35.1395,23.0609 138.6358,221.0776 c 14.3636,4.073 28.1777,-8.2339 28.1777,-8.2339 z"
         fill="#424242"
         id="path4-3"
         style="stroke-width:3.0847" /><path
         d="m 8231.1435,1660.6505 c -3.9085,1.2323 -4.781,1.3697 -8.0486,-1.128 -3.238,-2.4892 -7.2024,-10.2184 -7.4483,-12.4043 -0.35,-3.4017 0.6023,-3.9333 3.9013,-4.8254 11.8831,-3.2355 35.1327,-11.6163 73.6057,-33.0907 38.4731,-21.4744 57.8105,-36.8642 66.802,-45.2801 2.491,-2.3397 3.9576,-2.0841 6.846,1.5244 1.7714,2.2337 3.9702,6.3521 4.9913,10.5533 0.9528,3.9895 0.8399,4.727 -2.2606,7.4069 -11.7168,10.112 -31.941,24.8977 -66.1859,44.012 -34.2532,19.144 -57.4457,28.567 -72.2029,33.2319 z"
         fill="#94d1e0"
         id="path6-4"
         style="fill:#ff7f2a;stroke-width:3.0847" /><path
         d="m 8278.5766,1695.7753 c 5.1371,-1.2687 29.2256,-11.8164 51.5941,-24.3267 21.2341,-11.9021 40.829,-25.712 44.3981,-29.2529 2.5796,-2.539 6.9337,-1.2722 7.7669,2.2345 l 5.7082,23.7422 c 1.1965,5.0525 -0.094,10.3939 -3.5605,14.2524 -5.8936,6.537 -14.5015,13.9395 -35.9473,25.9099 -21.4459,11.9704 -32.265,15.4113 -40.9226,16.9963 -5.104,0.9254 -10.3276,-0.7802 -14,-4.4508 l -17.212,-17.3211 c -2.5474,-2.5499 -1.3401,-6.9209 2.1751,-7.7838 z"
         fill="#82aec0"
         id="path7-8"
         style="fill:#8b5020;fill-opacity:1;stroke-width:3.0847" /><path
         d="m 8383.5798,1679.7318 -7.1747,-21.8495 c -1.0189,-3.0784 -4.7077,-4.3168 -7.3776,-2.4768 l -18.3936,12.7397 c -1.9972,1.3895 -2.6571,4.056 -1.5427,6.2317 l 10.9698,21.1301 c 1.3271,2.5566 4.549,3.4061 6.9484,1.842 3.9735,-2.5925 9.9943,-6.9773 15.5291,-12.8144 1.222,-1.2567 1.5954,-3.1387 1.0413,-4.8028 z"
         fill="#94d1e0"
         id="path8-0"
         style="fill:#ff7f2a;stroke-width:3.0847" /><path
         style="fill:#100f0d;fill-opacity:1;fill-rule:nonzero;stroke:none;stroke-width:0.133333"
         d="m 8366.0087,1783.3549 c -6.1254,-0.1622 -11.6552,2.7068 -15.6152,10.3418 -1.0534,2.0533 -0.787,4.533 0.6797,6.293 19.0933,22.5334 30.7341,53.4668 41.4941,72.5468 14.28,25.1733 22.0534,55.7602 22.4668,82.7735 0.013,0.7467 0.2529,1.4662 0.5996,2.1328 0.04,0.067 0.026,0.1599 0.066,0.2266 0.1067,0.1733 0.2804,0.2817 0.4004,0.455 0.2134,0.2534 0.4147,0.5191 0.668,0.7325 0.2267,0.2 0.4931,0.3474 0.7598,0.4941 0.2667,0.1467 0.5325,0.2933 0.8125,0.3867 0.32,0.1066 0.6412,0.1456 0.9746,0.1856 0.2666,0.027 0.5458,0.068 0.8125,0.041 0.7333,-0.04 1.4664,-0.2016 2.1464,-0.6016 0.704,-0.416 1.391,-0.746 2.0801,-1.0898 0.649,-1.3075 1.327,-2.5997 2.0684,-3.8574 0.3531,-0.5971 0.7118,-1.1949 1.0898,-1.7793 -0.2729,-0.1212 -0.5785,-0.1922 -0.7715,-0.4454 l -1.3613,-1.7597 c -0.093,-0.12 -0.1856,-0.2533 -0.2656,-0.3867 -0.1334,-0.2133 -0.1605,-0.455 -0.2539,-0.6817 -0.1333,-0.2933 -0.2653,-0.5855 -0.332,-0.8789 -0.067,-0.3066 -0.054,-0.6132 -0.068,-0.9199 0,-0.2933 -0.027,-0.6012 0.027,-0.8945 0.053,-0.3067 0.1726,-0.5853 0.2793,-0.8653 0.1067,-0.28 0.215,-0.5615 0.375,-0.8281 0.16,-0.2667 0.3866,-0.4784 0.6133,-0.7051 0.2666,-0.28 0.5049,-0.6011 0.8516,-0.8144 16.24,-9.88 28.5612,-26.386 31.2012,-45.1993 0.5867,-4.24 -1.5327,-10.0799 -6.3594,-17.5332 -12.6,-19.2134 -26.9216,-41.094 -42.9883,-65.6406 -7.245,-11.0975 -26.7972,-31.3139 -42.4512,-31.7285 z"
         id="path76" /><path
         id="path40-1"
         d="m 8366.8227,1998.5846 c 0.32,0.3333 0.7333,0.56 1.2267,0.5733 h 2.0266 c 2.28,0 4.16,-1.7866 4.2667,-4.0533 2.1733,-41.6533 1.8933,-80.88 -0.8133,-117.6933 -1.44,-19.6267 -7.9867,-42.6534 -19.6267,-69.0934 -0.5467,-1.2533 -1.9333,-1.9066 -3.24,-1.56 l -2.44,0.68 c -0.7067,0.1867 -1.12,0.9067 -0.9467,1.6134 l 16.1734,55.36 c 0.093,0.36 0.16,0.7066 0.2,1.0266 l 5.48,70.04 c 0.027,0.3734 -0.013,0.7334 -0.12,1.0934 -0.013,0.013 -0.027,0.013 -0.027,0.04 -0.08,0.24 -0.2267,0.44 -0.36,0.6533 -0.08,0.12 -0.12,0.2533 -0.2,0.36 -0.1333,0.1467 -0.3067,0.24 -0.4533,0.3467 -0.1467,0.12 -0.28,0.2666 -0.44,0.3466 -0.1334,0.067 -0.2667,0.08 -0.4,0.12 -0.24,0.093 -0.4667,0.1867 -0.72,0.2 -0.3734,0.04 -0.76,0 -1.1334,-0.12 l -8.9333,-2.7733 c -0.6667,-0.1867 -1.3467,-0.12 -1.9867,0.053 -0.1466,0.04 -0.2666,0.08 -0.4133,0.1333 -0.6,0.24 -1.16,0.6 -1.5733,1.1467 -0.013,0.013 -0.027,0.013 -0.04,0.027 -0.1467,0.1867 -0.1867,0.4 -0.2934,0.6 -0.093,0.2267 -0.24,0.4267 -0.2933,0.6533 -0.1733,0.64 -0.1333,1.3067 0.04,1.9334 0.04,0.1466 0.093,0.28 0.1467,0.4133 0.2533,0.6133 0.6,1.1867 1.16,1.6133 6.0933,4.28 9.4533,9.36 10.0933,15.2267 2.5733,25.5333 3.7867,38.3733 3.6533,38.5067 -0.32,0.32 -0.52,0.7466 -0.5333,1.2 0,0.027 0.013,0.027 0.013,0.053 0,0.24 0.1467,0.4266 0.24,0.64 0.093,0.2266 0.1067,0.48 0.2667,0.64"
         style="fill:#100f0d;fill-opacity:1;fill-rule:nonzero;stroke:none;stroke-width:0.133333" /><path
         style="fill:#100f0d;fill-opacity:1;fill-rule:nonzero;stroke:none;stroke-width:0.133333"
         d="m 8353.9187,2543.1007 h -2.6367 v 118.4609 c 0,0.1866 0.013,0.3739 0.027,0.5606 0.027,0.36 0.213,0.6669 0.293,1.0136 0.1067,0.4267 0.1863,0.8793 0.373,1.2793 0.1866,0.3867 0.4537,0.7062 0.707,1.0528 0.2534,0.3467 0.4925,0.7067 0.8125,1 0.3066,0.2934 0.6795,0.4803 1.0528,0.707 0.36,0.2267 0.7211,0.4803 1.1211,0.627 0.4267,0.16 0.867,0.199 1.3203,0.2656 0.5333,0.093 1.0533,0.2408 1.6133,0.1875 l 32.5468,-2.4942 c 3.4133,-0.2934 6.0254,-3.1191 6.0254,-6.5058 v -115.377 c -14.4078,-0.6599 -28.8336,-0.901 -43.2555,-0.7773 z"
         id="path80" /><path
         style="fill:#100f0d;fill-opacity:1;fill-rule:nonzero;stroke:none;stroke-width:0.133333"
         d="m 8378.7025,1863.4386 c -0.1867,-0.013 -0.3602,6e-4 -0.5469,0.014 -0.1866,0.027 -0.3603,0.025 -0.5469,0.078 -0.1867,0.053 -0.3598,0.1468 -0.5332,0.2402 -0.16,0.08 -0.306,0.1472 -0.4394,0.2539 -0.3466,0.2667 -0.6539,0.5867 -0.8672,1 -0.64,1.2133 0.068,3.2932 2.0938,6.2266 1.4,2.0266 2.2391,4.8535 2.5058,8.4668 2.7066,40.0534 3.3215,82.9476 1.8281,128.6543 v 0.066 c -0.027,0.56 -0.2534,1.0405 -0.3867,1.5605 -0.12,0.5333 -0.16,1.106 -0.3867,1.586 -0.2267,0.4934 -0.6132,0.8529 -0.9199,1.2929 -0.3067,0.4266 -0.5466,0.9076 -0.9199,1.2676 -0.3867,0.36 -0.8804,0.5595 -1.3204,0.8262 -0.4533,0.2933 -0.8542,0.6531 -1.3476,0.8398 -0.4933,0.2 -1.0662,0.186 -1.5996,0.2793 -0.5466,0.093 -1.0657,0.2806 -1.6524,0.2539 l -3.9199,-0.1992 c -4.76,-0.1866 -8.6267,-3.9076 -9,-8.6543 l -4.1348,-52.4531 c -0.04,-0.6667 -0.1994,-1.3066 -0.4394,-1.9199 -0.04,-0.08 -0.1202,-0.1333 -0.1602,-0.2266 -0.1867,-0.4133 -0.4657,-0.7474 -0.7324,-1.1074 -0.2266,-0.2933 -0.427,-0.6253 -0.707,-0.8653 -0.2934,-0.28 -0.6534,-0.4546 -1,-0.6679 -0.3467,-0.2133 -0.6677,-0.4529 -1.041,-0.5996 -0.36,-0.12 -0.7322,-0.1463 -1.1055,-0.2129 -0.44,-0.093 -0.8807,-0.1872 -1.334,-0.1739 -0.7334,0.027 -1.4795,0.1345 -2.2129,0.4278 l -3.7207,1.4922 c -4.12,1.6934 -6.8656,5.6267 -7.039,10.08 l -4.3868,105.4395 c -0.24,5.4934 3.9204,10.1869 9.4004,10.6269 l 54.2793,4.1875 c 0.32,0.04 0.6008,0.2271 0.8008,0.4805 0.013,0.013 0.039,0.011 0.039,0.025 0.08,0.12 0.053,0.255 0.08,0.375 0.04,0.1467 0.1074,0.2791 0.094,0.4258 -0.04,0.3066 -0.1872,0.6008 -0.4805,0.8008 -2.4267,1.4133 -5.4806,2.4254 -8.2539,2.0254 -12.4,-1.9333 -25.307,-2.599 -38.707,-1.959 -0.24,0.013 -0.4668,0.052 -0.6934,0.1328 -0.04,0.013 -0.066,0.052 -0.1054,0.066 -0.16,0.067 -0.3081,0.1743 -0.4414,0.2676 -0.12,0.08 -0.239,0.1589 -0.3457,0.2656 -0.1066,0.1067 -0.1859,0.2397 -0.2793,0.373 -0.08,0.1334 -0.1736,0.2535 -0.2403,0.3868 -0.053,0.1467 -0.081,0.2947 -0.1074,0.4414 -0.04,0.16 -0.066,0.3189 -0.066,0.4922 0,0.2667 0.012,0.5481 0.1055,0.8281 l 3.455,9.9453 c 0.093,0.3066 0.1329,0.6537 0.1329,1.0137 v 454.5742 h 2.6367 c 3.6737,-0.034 7.3477,-0.054 11.0195,-0.049 10.7512,0.014 21.4956,0.2326 32.2363,0.8164 v -451.2206 c 0,-3.1867 1.3473,-6.2268 3.7207,-8.3868 4.2,-3.84 5.5728,-7.2151 4.1328,-10.1484 -0.027,-0.04 -0.04,-0.079 -0.053,-0.1055 -0.093,-0.1867 -0.092,-0.3738 -0.1328,-0.5605 -0.053,-0.2 -0.1465,-0.4133 -0.1465,-0.6133 -0.013,-0.2134 0.039,-0.3999 0.066,-0.6133 0.027,-0.2 0.026,-0.4013 0.092,-0.5879 0.067,-0.2 0.2016,-0.3598 0.2949,-0.5332 0.1067,-0.1866 0.1851,-0.3728 0.3184,-0.5195 0.1333,-0.16 0.3208,-0.267 0.4941,-0.4004 0.1734,-0.1333 0.3336,-0.307 0.5469,-0.4004 4.6,-2.12 8.2527,-4.4526 10.9727,-6.9726 1.6667,-1.5467 2.5347,-3.7872 2.3613,-6.0938 l -6.6934,-85.334 c -0.1867,-1.9866 -0.6149,-3.9328 -1.2949,-5.8261 -5.5867,-15.48 -10.6929,-40.3587 -15.2929,-74.6387 -1.4,-10.6134 -6.7194,-22.4947 -15.9727,-35.668 -0.24,-0.3733 -0.5861,-0.6402 -0.9727,-0.8535 -0.04,-0.027 -0.068,-0.067 -0.094,-0.08 -0.12,-0.067 -0.2394,-0.052 -0.3594,-0.092 -0.2,-0.067 -0.3875,-0.1335 -0.5742,-0.1601 z"
         id="path44-7" /><path
         style="fill:#100f0d;fill-opacity:1;fill-rule:nonzero;stroke:none;stroke-width:0.133333"
         d="m 8599.1296,2544.8154 c -37.1164,261.0397 -100.6859,519.2688 -201.0058,762.4512 -0.053,0.2534 -0.321,0.4283 -0.5743,0.375 -0.2667,-0.067 -0.4264,-0.3212 -0.373,-0.5879 v -410.6523 c 0,-1.9067 1.0801,-3.6401 2.7734,-4.4668 15.3867,-7.2667 23.0138,-19.693 22.8672,-37.293 -0.2134,-35.0134 -0.4017,-72.3467 -0.5351,-112 0,0 -0.3925,-66.5714 -4.0659,-66.6682 -1.7734,-2.2133 -4.3471,-3.6529 -7.1738,-3.9863 -28.2,-3.7066 -55.0662,-3.4124 -80.5996,0.8809 -3.3066,0.52 -5.7328,3.4128 -5.7461,6.8261 v 190.4395 c -0.013,2.5333 0.8789,4.9862 2.4922,6.9062 5.24,6.36 11.787,10.0408 19.627,11.0274 2.2,0.3067 3.8538,2.1871 3.8671,4.4004 v 496.1328 c 15.5872,0.051 31.1747,0.1238 46.7618,0.2089 v -27.875 c 0,-1.8 0.3205,-3.5595 0.9472,-5.2128 48.0533,-124.3867 88.1193,-226.7879 119.586,-340.8946 36.8133,-133.1866 65.72,-264.9462 86.6933,-395.2929 4.0836,-25.3835 7.6908,-49.9696 11.3946,-74.7188 z"
         id="path81"
         /><path
         style="fill:#100f0d;fill-opacity:1;fill-rule:nonzero;stroke:none;stroke-width:0.133333"
         d="m 8492.2396,1905.4249 c -1.394,0.1944 -2.7733,0.6624 -4.0566,1.4258 -14.3067,8.52 -26.2656,18.7476 -35.8789,30.6543 -4.7867,5.8933 -5.3608,14.1586 -1.4141,20.6386 21.7866,36.1867 48.1871,67.7069 79.1738,94.5469 1.08,0.8933 2.2663,1.6138 3.5196,2.0938 l 6.4394,2.4394 c 2.12,0.8267 3.8408,2.4532 4.8008,4.5332 17.8267,39.12 27.5204,61.7211 29.0937,67.8145 38.9973,103.7289 39.7913,184.3298 41.6024,256.2996 1.8701,74.3115 -11.9675,128.4845 -16.3901,158.9444 l 16.9354,1e-4 c 21.2028,-105.4362 19.1178,-222.79 -9.5891,-355.1367 -12.8533,-56.8133 -29.9596,-104.8668 -51.2929,-144.1602 -1.4267,-2.64 -1.3456,-5.8267 0.2011,-8.3867 l 0.8789,-1.5605 c 1.8667,-3.0134 2.1745,-6.7735 0.8145,-10.0801 l -15.0938,-36.4141 c -1.0667,-2.5733 -1.4931,-5.3855 -1.2265,-8.1855 0,-0.1334 0.1605,-1.0798 0.4805,-2.8398 0.3467,-1.9734 -0.04,-3.9867 -1.0801,-5.6934 l -37.0938,-61.7871 c -2.32,-3.84 -6.6423,-5.7296 -10.8242,-5.1465 z"
         id="path48-2"
         /><g
         id="g90"
         transform="translate(13.684205,-649.94001)"><path
           style="fill:#100f0d;fill-opacity:1;fill-rule:nonzero;stroke:none;stroke-width:0.133333"
           d="m 8311.3279,4041.9845 c -9.6907,0.7666 -11.7522,7.3728 -11.9289,17.4777 -1.4,62 -3.1469,119.3518 -4.4536,152.3385 0,0.04 -1e-4,0.093 -0.014,0.1328 -0.013,0.1734 -0.1462,0.281 -0.2129,0.4277 -0.08,0.16 -0.1206,0.3468 -0.2539,0.4668 -0.1333,0.1333 -0.3208,0.1462 -0.4941,0.2129 -0.2,0.067 -0.3592,0.2005 -0.5859,0.1738 l -1.959,-0.1347 h -0.027 c -0.2133,-0.027 -0.3999,-0.1189 -0.6132,-0.1856 -0.2,-0.053 -0.4267,-0.081 -0.6133,-0.1738 -0.1867,-0.1067 -0.3345,-0.2675 -0.5078,-0.4141 -0.1467,-0.12 -0.3332,-0.213 -0.4532,-0.373 -0.1467,-0.16 -0.2137,-0.3603 -0.3203,-0.5469 -0.093,-0.1734 -0.2262,-0.3332 -0.2929,-0.5332 -0.067,-0.2 -0.053,-0.4136 -0.08,-0.6269 -0.027,-0.2267 -0.091,-0.4394 -0.065,-0.6661 l 2.5059,-31.8789 c 0.04,-0.6267 -0.08,-1.2551 -0.3067,-1.8418 -0.053,-0.16 -0.1723,-0.2931 -0.2656,-0.4531 -0.2,-0.3867 -0.4278,-0.7464 -0.7344,-1.0664 -0.053,-0.053 -0.079,-0.1321 -0.1328,-0.1855 -0.1466,-0.1333 -0.3204,-0.1746 -0.4804,-0.2813 -0.2533,-0.1733 -0.5068,-0.3468 -0.7735,-0.4668 -0.28,-0.12 -0.5718,-0.1717 -0.8652,-0.2383 -0.2533,-0.04 -0.5067,-0.1074 -0.7734,-0.1074 -0.44,-0.013 -0.8546,0.079 -1.2813,0.1992 -0.16,0.053 -0.3459,0.055 -0.5059,0.1348 -0.5733,0.24 -1.0932,0.5864 -1.5332,1.0664 l -7.1738,8.1191 c -0.8534,0.9467 -1.8262,1.7879 -2.9062,2.5079 l -271.5196,178.4531 c -0.027,0.013 -0.041,0.04 -0.068,0.053 -0.56,0.3734 -1.0132,0.8269 -1.5332,1.2402 -0.5466,0.4534 -1.147,0.8524 -1.627,1.3457 -0.48,0.4667 -0.8389,1.0129 -1.2656,1.5196 -0.4267,0.5333 -0.908,1.0142 -1.2813,1.5742 -0.36,0.5467 -0.6132,1.1337 -0.9199,1.707 -0.3067,0.5867 -0.6783,1.1465 -0.9316,1.7598 -0.2534,0.6 -0.3875,1.2265 -0.5742,1.8398 -0.1866,0.6267 -0.441,1.2393 -0.5743,1.8926 -0.1333,0.6134 -0.1329,1.2543 -0.2129,1.8809 -0.067,0.6667 -0.1994,1.3196 -0.2128,1.9863 0,0.6533 0.1071,1.2936 0.1738,1.9336 0.053,0.6667 0.04,1.333 0.1601,1.9863 0.12,0.6533 0.3719,1.2799 0.5586,1.9199 0.1866,0.64 0.3072,1.2796 0.5606,1.9063 0.2533,0.64 0.6393,1.2406 0.9726,1.8672 0.32,0.6 0.5606,1.2277 0.9473,1.8144 l 1.2266,1.8926 c 0.04,0.067 0.079,0.1463 0.1328,0.2129 0.4133,0.6134 0.9217,1.1076 1.375,1.6543 0.4933,0.6 0.9452,1.2519 1.4785,1.7852 0.5333,0.52 1.1474,0.934 1.7207,1.414 0.5733,0.4666 1.1191,0.9867 1.7324,1.3867 0.6134,0.4134 1.2936,0.7078 1.9336,1.0411 0.64,0.3467 1.2669,0.7317 1.9336,1.0117 0.68,0.28 1.3868,0.4272 2.0801,0.6406 0.6933,0.2133 1.3734,0.4804 2.0801,0.627 0.7067,0.1334 1.4397,0.1598 2.1464,0.2265 0.7333,0.08 1.4542,0.2129 2.1875,0.2129 0.72,0.013 1.4265,-0.1205 2.1465,-0.1738 0.7467,-0.067 1.4796,-0.08 2.2129,-0.2129 0.72,-0.1334 1.4128,-0.4133 2.1328,-0.6133 0.7066,-0.2133 1.4415,-0.3606 2.1348,-0.6406 0.7067,-0.2933 1.3727,-0.7181 2.0527,-1.0781 0.7067,-0.3733 1.4392,-0.6681 2.1192,-1.1348 l 258.5879,-173.8535 c 0.067,-0.027 0.1205,-0.027 0.1738,0 0.027,0.013 0.013,0.041 0.027,0.068 0.053,0.053 0.1069,0.1193 0.08,0.1993 -82.2934,127.1867 -161.1466,255.6127 -236.5332,385.2792 -0.6134,1.0401 -1.1078,2.1342 -1.5078,3.2676 v 0.039 c -0.8133,2.3599 -1.1073,4.761 -0.9473,7.1074 0.04,0.6937 0.214,1.3471 0.334,2.0273 0.08,0.4803 0.1203,0.9865 0.2403,1.4532 0.1466,0.5735 0.3999,1.0925 0.6132,1.6523 0.2,0.5463 0.3603,1.121 0.627,1.6543 0.2133,0.4537 0.5198,0.8523 0.7598,1.2793 0.3466,0.5865 0.6666,1.1875 1.08,1.7344 1.4266,1.9062 3.2398,3.545 5.3731,4.7851 1.0267,0.6136 2.1332,1.1332 3.3066,1.5332 l 1.8262,0.6153 c 11.5734,4.1734 24.4805,-0.4147 30.8672,-10.9746 l 237.334,-392.6524 c 0.36,-0.6 0.573,-1.2669 0.6797,-1.9336 0.04,-0.24 0.011,-0.4943 0.025,-0.7343 0.013,-0.3334 0.078,-0.6664 0.025,-0.9864 -0.013,-0.1067 -0.081,-0.1741 -0.094,-0.2675 -0.08,-0.3866 -0.24,-0.7318 -0.3867,-1.0918 -0.1333,-0.3067 -0.2254,-0.628 -0.4121,-0.8946 -0.1867,-0.28 -0.428,-0.5057 -0.668,-0.7324 -0.2666,-0.2933 -0.5199,-0.5605 -0.8399,-0.7871 -0.3466,-0.2267 -0.7191,-0.3865 -1.1191,-0.5332 -0.2266,-0.093 -0.426,-0.2143 -0.666,-0.2676 -0.6534,-0.1467 -1.3341,-0.1987 -2.0274,-0.1054 -11.0133,1.5867 -18.7197,-0.6006 -23.1464,-6.5606 -0.2666,-0.3733 -0.3476,-0.8536 -0.2676,-1.3203 0.013,-0.013 -0.012,-0.039 -0.012,-0.066 0.053,-0.2 0.239,-0.3071 0.3457,-0.4805 0.12,-0.1733 0.1997,-0.3858 0.373,-0.5058 0.3867,-0.2534 0.8403,-0.3743 1.3203,-0.2676 41.24,10.96 82.094,10.0813 122.5606,-2.6387 2.04,-0.64 3.4003,-2.5744 3.3203,-4.7344 l -4.4004,-153.8261 c 0.143,-7.9582 -4.7575,-15.0725 -11.7305,-14.9981 h -82.8066 c 0,0 -15.3459,0.393 -19.692,0.5019 z"
           id="path90"
           /><path
           id="path72-3"
           d="m 8725.8379,4362.8537 -288.0933,-196.6666 c -0.1733,-0.1334 -0.3867,-0.2 -0.6,-0.1867 -0.013,0 -0.013,0 -0.027,0.013 -0.12,0 -0.2,0.08 -0.2933,0.1334 -0.1067,0.053 -0.2133,0.08 -0.2933,0.1733 -0.1334,0.16 -0.2267,0.3733 -0.2134,0.6 l 1.08,39.0533 c 0.2134,6.76 -4.24,12.7734 -10.76,14.5467 l -20.9733,5.76 c -0.4267,0.12 -0.84,0.2933 -1.2267,0.5333 -0.1066,0.053 -0.1733,0.16 -0.2666,0.2267 -0.2934,0.2133 -0.5467,0.4533 -0.7867,0.7067 -0.2133,0.2266 -0.44,0.4533 -0.6133,0.72 -0.1734,0.2666 -0.2934,0.5733 -0.4134,0.8666 -0.12,0.3067 -0.24,0.6 -0.3066,0.92 -0.067,0.3067 -0.053,0.6267 -0.053,0.9334 -0.013,0.36 0,0.6933 0.067,1.04 0.12,0.5333 0.2533,1.0666 0.5467,1.56 l 238.7066,396.9998 c 5.8267,9.6666 18.4267,12.7869 28.1467,6.9599 l 3.5867,-2.0933 c 9.4,-5.6932 12.4266,-17.9198 6.7733,-27.3463 l -228.3467,-379.7335 c -0.1466,-0.1866 -0.12,-0.44 -0.013,-0.6533 0.013,-0.027 -0.013,-0.067 0,-0.093 0.027,-0.04 0.093,-0.04 0.12,-0.067 0.067,-0.053 0.12,-0.093 0.1867,-0.12 0.2266,-0.1067 0.4933,-0.1467 0.72,-0.013 l 250.9466,171.2933 c 0.2267,0.1467 0.44,0.2933 0.6667,0.44 0.4267,0.2667 0.8933,0.4133 1.3333,0.6533 0.5734,0.2934 1.1334,0.6 1.72,0.84 0.5734,0.2267 1.1467,0.36 1.7334,0.5334 0.5866,0.1733 1.1733,0.36 1.7733,0.4666 0.6133,0.1067 1.2133,0.1334 1.8133,0.1867 0.6,0.04 1.1867,0.1067 1.7734,0.1067 0.6133,-0.013 1.2,-0.093 1.8,-0.1734 0.5866,-0.067 1.1866,-0.1066 1.76,-0.2266 0.5866,-0.12 1.1466,-0.32 1.7066,-0.4934 0.5734,-0.1866 1.16,-0.3466 1.72,-0.5733 0.5467,-0.24 1.0534,-0.5333 1.5734,-0.8133 0.5333,-0.2934 1.08,-0.56 1.5866,-0.9067 0.5067,-0.3333 0.9734,-0.7467 1.44,-1.1467 0.4667,-0.3733 0.9467,-0.7466 1.3734,-1.1733 0.4533,-0.4533 0.84,-0.9733 1.24,-1.48 0.4666,-0.5867 0.9733,-1.1333 1.3866,-1.7867 l 1.8267,-2.9866 c 5.76,-9.2267 3.1867,-21.3734 -5.8267,-27.5334"
           style="fill:#100f0d;fill-opacity:1;fill-rule:nonzero;stroke:none;stroke-width:0.133333" /><rect
           style="opacity:1;fill:#4d4d4d;fill-opacity:1;stroke:none;stroke-width:0.405133;stroke-linecap:round;stroke-linejoin:round;stroke-miterlimit:6;paint-order:markers stroke fill"
           id="rect76"
           width="71.09668"
           height="51.189613"
           x="4542.8003"
           y="7883.7939"
           rx="17.482155"
           ry="25.594807"
           transform="rotate(-31.340419)" /><rect
           style="fill:#4d4d4d;fill-opacity:1;stroke:none;stroke-width:0.405133;stroke-linecap:round;stroke-linejoin:round;stroke-miterlimit:6;paint-order:markers stroke fill"
           id="rect76-3"
           width="71.09668"
           height="51.189613"
           x="151.7032"
           y="9273.3223"
           rx="17.482155"
           ry="25.594807"
           transform="rotate(-59.116649)" /><rect
           style="fill:#4d4d4d;fill-opacity:1;stroke:none;stroke-width:0.405133;stroke-linecap:round;stroke-linejoin:round;stroke-miterlimit:6;paint-order:markers stroke fill"
           id="rect76-7"
           width="71.09668"
           height="51.189613"
           x="-8500.9355"
           y="4925.0576"
           rx="17.482155"
           ry="25.594807"
           transform="rotate(-121.63463)" /><rect
           style="fill:#4d4d4d;fill-opacity:1;stroke:none;stroke-width:0.405133;stroke-linecap:round;stroke-linejoin:round;stroke-miterlimit:6;paint-order:markers stroke fill"
           id="rect76-77"
           width="71.09668"
           height="51.189613"
           x="-9714.4668"
           y="1118.4016"
           rx="17.482155"
           ry="25.594807"
           transform="rotate(-146.57932)" /></g><path
         id="rect90"
         style="fill:#100f0d;fill-opacity:1;stroke:none;stroke-width:0.377953;stroke-linecap:round;stroke-linejoin:round;stroke-miterlimit:6;paint-order:markers stroke fill"
         d="m 8445.4109,2679.7393 c -8.3184,0 -15.1293,9.0341 -16.1602,20.789 -7.9543,2.0792 -13.3066,5.9972 -13.3066,10.5156 v 15.8204 c 0,4.5074 5.3277,8.4149 13.25,10.498 0.8589,12.0285 7.7661,21.3457 16.2168,21.3457 h 12.5449 c 8.3602,0 15.1984,-9.1234 16.1758,-20.9648 8.7871,-1.9589 14.832,-6.0782 14.832,-10.8789 v -15.8204 c 0,-4.811 -6.071,-8.9369 -14.8887,-10.8906 -1.1423,-11.5702 -7.89,-20.414 -16.1191,-20.414 z" /><g
         id="g94"
         transform="matrix(0.48464668,0.27989784,-0.27989786,0.48464668,5088.9028,-925.75386)"><path
           id="path91"
           style="fill:#666666;fill-opacity:1;stroke:#1a1a1a;stroke-width:1.11874;stroke-linecap:round;stroke-linejoin:round;stroke-miterlimit:6;stroke-dasharray:none;stroke-opacity:1;paint-order:markers stroke fill"
           d="m 8455.196,2646.4853 c -0.078,-2.756 -0.1347,-8.4966 -0.1347,-15.3066 0,-6.9426 0.058,-12.824 0.1386,-15.5098 a 17.007874,17.007874 0 0 0 -9.8301,15.4102 17.007874,17.007874 0 0 0 9.8262,15.4062 z" /><path
           id="path94"
           style="fill:#4d4d4d;fill-opacity:1;stroke:#1a1a1a;stroke-width:1.11874;stroke-linecap:round;stroke-linejoin:round;stroke-miterlimit:6;stroke-dasharray:none;stroke-opacity:1;paint-order:markers stroke fill"
           d="m 8469.8073,2615.7822 c 0.08,2.7255 0.1348,8.5273 0.1348,15.3965 0,6.7215 -0.054,12.3705 -0.1308,15.1699 a 17.007874,17.007874 0 0 0 9.5742,-15.2695 17.007874,17.007874 0 0 0 -9.5782,-15.2969 z" /><path
           id="path93"
           style="fill:#333333;fill-opacity:1;stroke:#1a1a1a;stroke-width:1.11874;stroke-linecap:round;stroke-linejoin:round;stroke-miterlimit:6;stroke-dasharray:none;paint-order:markers stroke fill"
           d="m 8462.5456,2614.0752 h -0.2226 a 17.007874,17.007874 0 0 0 -7.1231,1.5937 c -0.081,2.6858 -0.1386,8.5672 -0.1386,15.5098 0,6.81 0.056,12.5506 0.1347,15.3066 a 17.007874,17.007874 0 0 0 7.1817,1.6016 17.007874,17.007874 0 0 0 7.4336,-1.7383 c 0.077,-2.7994 0.1308,-8.4484 0.1308,-15.1699 0,-6.8692 -0.055,-12.671 -0.1348,-15.3965 a 17.007874,17.007874 0 0 0 -7.2617,-1.707 z" /><path
           id="path92"
           style="fill:#4d4d4d;fill-opacity:1;stroke:none;stroke-width:0.361611;stroke-linecap:round;stroke-linejoin:round;stroke-miterlimit:6;paint-order:markers stroke fill"
           d="m 8462.3777,2614.0713 a 17.007874,17.007874 0 0 0 -0.055,0 h 0.2226 a 17.007874,17.007874 0 0 0 -0.1679,0 z" /></g></g></g></svg>
