<?xml version="1.0" encoding="UTF-8" standalone="no"?>
<!-- Created with Inkscape (http://www.inkscape.org/) -->

<svg
   width="76.266335mm"
   height="61.849003mm"
   viewBox="0 0 76.266334 61.849003"
   version="1.1"
   id="svg1"
   xml:space="preserve"
   xmlns="http://www.w3.org/2000/svg"
   xmlns:svg="http://www.w3.org/2000/svg"><defs
     id="defs1" /><g
     id="g1"
     transform="matrix(0.26458333,0,0,0.26458335,-311.17533,-415.43823)"><g
       id="g15"><path
         id="path1357"
         d="m 1263.0346,1793.3067 h -81.78 c -2.8493,0 -5.1586,-2.32 -5.1586,-5.1733 v -197.2 c 0,-1.4133 0.5773,-2.7067 1.508,-3.64 0.9373,-0.9333 2.2373,-1.52 3.6506,-1.52 h 81.78 0.1947 c 2.836,0 5.1667,2.32 5.1667,5.16 v 197.2 c 0,2.8533 -2.3307,5.1733 -5.1667,5.1733 h -0.1947"
         style="fill:#200d02;fill-opacity:1;fill-rule:nonzero;stroke:none;stroke-width:0.133333" /><path
         id="path1358"
         d="m 1176.096,1678.3601 v -87.4267 c 0,-1.4133 0.5773,-2.7067 1.508,-3.64 0.9373,-0.9333 2.2373,-1.52 3.6506,-1.52 h 71.0347 c -18.032,11.0667 -56.8693,39.92 -76.1933,92.5867"
         style="fill:#423f3f;fill-opacity:1;fill-rule:nonzero;stroke:none;stroke-width:0.133333" /><path
         id="path1359"
         d="m 1184.64,1782.1467 h 55.1588 V 1591.9601 H 1184.64 Z"
         style="fill:#cac9c9;fill-opacity:1;fill-rule:nonzero;stroke:none;stroke-width:0.133333" /><path
         id="path1360"
         d="m 1184.64,1604.8001 h 52.3078 V 1591.96 H 1184.64 Z"
         style="fill:#b9b7b8;fill-opacity:1;fill-rule:nonzero;stroke:none;stroke-width:0.133333" /><path
         id="path1361"
         d="m 1187.4973,1604.8001 h 52.3016 V 1591.96 h -52.3016 z"
         style="fill:#ffffff;fill-opacity:1;fill-rule:nonzero;stroke:none;stroke-width:0.133333" /><path
         id="path1362"
         d="m 1184.64,1618.4534 h 52.3078 v -12.8266 H 1184.64 Z"
         style="fill:#b9b7b8;fill-opacity:1;fill-rule:nonzero;stroke:none;stroke-width:0.133333" /><path
         id="path1363"
         d="m 1187.4973,1618.4534 h 52.3016 v -12.8266 h -52.3016 z"
         style="fill:#ffffff;fill-opacity:1;fill-rule:nonzero;stroke:none;stroke-width:0.133333" /><path
         id="path1364"
         d="m 1184.64,1632.6001 h 52.3078 v -12.8402 H 1184.64 Z"
         style="fill:#b9b7b8;fill-opacity:1;fill-rule:nonzero;stroke:none;stroke-width:0.133333" /><path
         id="path1365"
         d="m 1187.4973,1632.6134 h 52.3016 v -12.8396 h -52.3016 z"
         style="fill:#ffffff;fill-opacity:1;fill-rule:nonzero;stroke:none;stroke-width:0.133333" /><path
         id="path1366"
         d="m 1184.64,1646.4267 h 52.3078 v -12.8531 H 1184.64 Z"
         style="fill:#b9b7b8;fill-opacity:1;fill-rule:nonzero;stroke:none;stroke-width:0.133333" /><path
         id="path1367"
         d="m 1187.4973,1646.4267 h 52.3016 v -12.8531 h -52.3016 z"
         style="fill:#ffffff;fill-opacity:1;fill-rule:nonzero;stroke:none;stroke-width:0.133333" /><path
         id="path1368"
         d="m 1184.64,1660.3867 h 52.3078 v -12.8396 H 1184.64 Z"
         style="fill:#b9b7b8;fill-opacity:1;fill-rule:nonzero;stroke:none;stroke-width:0.133333" /><path
         id="path1369"
         d="m 1187.4973,1660.3867 h 52.3016 v -12.8396 h -52.3016 z"
         style="fill:#ffffff;fill-opacity:1;fill-rule:nonzero;stroke:none;stroke-width:0.133333" /><path
         id="path1370"
         d="m 1184.64,1674.3601 h 52.3078 v -12.8402 H 1184.64 Z"
         style="fill:#b9b7b8;fill-opacity:1;fill-rule:nonzero;stroke:none;stroke-width:0.133333" /><path
         id="path1371"
         d="m 1187.4973,1674.3601 h 52.3016 v -12.8402 h -52.3016 z"
         style="fill:#ffffff;fill-opacity:1;fill-rule:nonzero;stroke:none;stroke-width:0.133333" /><path
         id="path1372"
         d="m 1184.64,1688.2801 h 52.3078 v -12.8662 H 1184.64 Z"
         style="fill:#b9b7b8;fill-opacity:1;fill-rule:nonzero;stroke:none;stroke-width:0.133333" /><path
         id="path1373"
         d="m 1187.4973,1688.2801 h 52.3016 v -12.8662 h -52.3016 z"
         style="fill:#ffffff;fill-opacity:1;fill-rule:nonzero;stroke:none;stroke-width:0.133333" /><path
         id="path1374"
         d="m 1184.64,1702.2401 h 52.3078 v -12.8402 H 1184.64 Z"
         style="fill:#b9b7b8;fill-opacity:1;fill-rule:nonzero;stroke:none;stroke-width:0.133333" /><path
         id="path1375"
         d="m 1187.4973,1702.2401 h 52.3016 v -12.8402 h -52.3016 z"
         style="fill:#ffffff;fill-opacity:1;fill-rule:nonzero;stroke:none;stroke-width:0.133333" /><path
         id="path1376"
         d="m 1184.64,1716.5467 h 52.3078 v -12.8135 H 1184.64 Z"
         style="fill:#b9b7b8;fill-opacity:1;fill-rule:nonzero;stroke:none;stroke-width:0.133333" /><path
         id="path1377"
         d="m 1187.4973,1716.5467 h 52.3016 v -12.8135 h -52.3016 z"
         style="fill:#ffffff;fill-opacity:1;fill-rule:nonzero;stroke:none;stroke-width:0.133333" /><path
         id="path1378"
         d="m 1184.64,1730.5334 h 52.3078 v -12.8667 H 1184.64 Z"
         style="fill:#b9b7b8;fill-opacity:1;fill-rule:nonzero;stroke:none;stroke-width:0.133333" /><path
         id="path1379"
         d="m 1187.4973,1730.5334 h 52.3016 v -12.8537 h -52.3016 z"
         style="fill:#ffffff;fill-opacity:1;fill-rule:nonzero;stroke:none;stroke-width:0.133333" /><path
         id="path1380"
         d="m 1184.64,1744.3734 h 52.3078 v -12.8266 H 1184.64 Z"
         style="fill:#b9b7b8;fill-opacity:1;fill-rule:nonzero;stroke:none;stroke-width:0.133333" /><path
         id="path1381"
         d="m 1187.4973,1744.3734 h 52.3016 v -12.8266 h -52.3016 z"
         style="fill:#ffffff;fill-opacity:1;fill-rule:nonzero;stroke:none;stroke-width:0.133333" /><path
         id="path1382"
         d="m 1184.64,1758.3334 h 52.3078 v -12.8401 H 1184.64 Z"
         style="fill:#b9b7b8;fill-opacity:1;fill-rule:nonzero;stroke:none;stroke-width:0.133333" /><path
         id="path1383"
         d="m 1187.4973,1758.3334 h 52.3016 v -12.8266 h -52.3016 z"
         style="fill:#ffffff;fill-opacity:1;fill-rule:nonzero;stroke:none;stroke-width:0.133333" /><path
         id="path1384"
         d="m 1184.64,1772.0134 h 52.3078 v -12.8531 H 1184.64 Z"
         style="fill:#b9b7b8;fill-opacity:1;fill-rule:nonzero;stroke:none;stroke-width:0.133333" /><path
         id="path1385"
         d="m 1187.4973,1772.0134 h 52.3016 v -12.8396 h -52.3016 z"
         style="fill:#ffffff;fill-opacity:1;fill-rule:nonzero;stroke:none;stroke-width:0.133333" /><path
         id="path1386"
         d="m 1184.64,1785.9734 h 52.3078 v -12.8271 H 1184.64 Z"
         style="fill:#b9b7b8;fill-opacity:1;fill-rule:nonzero;stroke:none;stroke-width:0.133333" /><path
         id="path1387"
         d="m 1187.4973,1785.9734 h 52.3016 v -12.8271 h -52.3016 z"
         style="fill:#ffffff;fill-opacity:1;fill-rule:nonzero;stroke:none;stroke-width:0.133333" /><path
         id="path1388"
         d="m 1207.8826,1604.8001 h -20.3853 v -12.84 h 36.9893 c -3.6786,1.5866 -7.6626,4.5333 -11.5573,9.7466 h -5.0467 v 3.0934"
         style="fill:#d2d1d2;fill-opacity:1;fill-rule:nonzero;stroke:none;stroke-width:0.133333" /><path
         id="path1389"
         d="m 1204.1666,1618.4534 h -16.6693 v -12.8267 h 20.3853 v 2.2534 h 1.096 c -1.664,3 -3.2826,6.4933 -4.812,10.5733"
         style="fill:#d2d1d2;fill-opacity:1;fill-rule:nonzero;stroke:none;stroke-width:0.133333" /><path
         id="path1390"
         d="m 1199.7786,1632.6134 h -12.2813 v -12.84 h 16.1773 c -1.3706,3.7733 -2.684,8.04 -3.896,12.84"
         style="fill:#d2d1d2;fill-opacity:1;fill-rule:nonzero;stroke:none;stroke-width:0.133333" /><path
         id="path1391"
         d="m 1196.828,1646.4267 h -9.3307 v -12.8533 h 12.0373 c -0.9533,3.9333 -1.8626,8.2 -2.7066,12.8533"
         style="fill:#d2d1d2;fill-opacity:1;fill-rule:nonzero;stroke:none;stroke-width:0.133333" /><path
         id="path1392"
         d="m 1194.7346,1660.3867 h -7.2373 v -12.84 h 9.1493 c -0.6986,4.0134 -1.3493,8.28 -1.912,12.84"
         style="fill:#d2d1d2;fill-opacity:1;fill-rule:nonzero;stroke:none;stroke-width:0.133333" /><path
         id="path1393"
         d="m 1193.2773,1674.3601 h -5.78 v -12.84 h 7.0853 c -0.484,4.0666 -0.9373,8.3333 -1.3053,12.84"
         style="fill:#d2d1d2;fill-opacity:1;fill-rule:nonzero;stroke:none;stroke-width:0.133333" /><path
         id="path1394"
         d="m 1192.2813,1688.2801 h -4.784 v -12.8667 h 5.672 c -0.332,4.1067 -0.636,8.3867 -0.888,12.8667"
         style="fill:#d2d1d2;fill-opacity:1;fill-rule:nonzero;stroke:none;stroke-width:0.133333" /><path
         id="path1395"
         d="m 1191.7026,1702.2401 h -4.2053 v -12.84 h 4.7347 c -0.232,4.0933 -0.3987,8.3866 -0.5294,12.84"
         style="fill:#d2d1d2;fill-opacity:1;fill-rule:nonzero;stroke:none;stroke-width:0.133333" /><path
         id="path1396"
         d="m 1191.4293,1716.5467 h -3.932 v -12.8133 h 4.156 c -0.116,4.1067 -0.1947,8.4 -0.224,12.8133"
         style="fill:#d2d1d2;fill-opacity:1;fill-rule:nonzero;stroke:none;stroke-width:0.133333" /><path
         id="path1397"
         d="m 1191.4506,1730.5334 h -3.9533 v -12.8533 h 3.932 c -0.036,4.1333 -0.036,8.44 0.021,12.8533"
         style="fill:#d2d1d2;fill-opacity:1;fill-rule:nonzero;stroke:none;stroke-width:0.133333" /><path
         id="path1398"
         d="m 1191.7026,1744.3734 h -4.2053 v -12.8267 h 3.9533 c 0.052,4.1467 0.1307,8.4267 0.252,12.8267"
         style="fill:#d2d1d2;fill-opacity:1;fill-rule:nonzero;stroke:none;stroke-width:0.133333" /><path
         id="path1399"
         d="m 1192.1586,1758.3334 h -4.6613 v -12.8267 h 4.2213 c 0.1227,4.16 0.2667,8.4134 0.44,12.8267"
         style="fill:#d2d1d2;fill-opacity:1;fill-rule:nonzero;stroke:none;stroke-width:0.133333" /><path
         id="path1400"
         d="m 1192.7786,1772.0134 h -5.2813 v -12.84 h 4.6907 c 0.1666,4.16 0.3666,8.4667 0.5906,12.84"
         style="fill:#d2d1d2;fill-opacity:1;fill-rule:nonzero;stroke:none;stroke-width:0.133333" /><path
         id="path1401"
         d="m 1193.5866,1785.9734 h -6.0893 v -12.8267 h 5.34 c 0.2307,4.1734 0.468,8.44 0.7493,12.8267"
         style="fill:#d2d1d2;fill-opacity:1;fill-rule:nonzero;stroke:none;stroke-width:0.133333" /><path
         id="path1402"
         d="m 1207.8826,1607.8801 h 31.3386 v -6.1735 h -31.3386 z"
         style="fill:#474344;fill-opacity:1;fill-rule:nonzero;stroke:none;stroke-width:0.133333" /><path
         id="path1403"
         d="m 1210.1986,1607.8801 h 31.3251 v -6.1735 h -31.3251 z"
         style="fill:#252221;fill-opacity:1;fill-rule:nonzero;stroke:none;stroke-width:0.133333" /><path
         id="path1404"
         d="m 1210.1986,1607.0934 h 31.3251 v -0.3734 h -31.3251 z"
         style="fill:#e9e9e9;fill-opacity:1;fill-rule:nonzero;stroke:none;stroke-width:0.133333" /><path
         id="path1405"
         d="m 1212.1173,1607.8801 h -1.9187 v -0.7867 h 3.3734 c -0.5134,0.2533 -0.9987,0.5067 -1.4547,0.7867"
         style="fill:#141211;fill-opacity:1;fill-rule:nonzero;stroke:none;stroke-width:0.133333" /><path
         id="path1406"
         d="m 1214.3826,1606.7201 h -4.184 v -5.0134 h 31.3254 c 0,0 -17.472,0.7467 -27.1414,5.0134"
         style="fill:#141211;fill-opacity:1;fill-rule:nonzero;stroke:none;stroke-width:0.133333" /><path
         id="path1407"
         d="m 1213.572,1607.0934 h -3.3734 v -0.3733 h 4.184 c -0.2773,0.12 -0.548,0.24 -0.8106,0.3733"
         style="fill:#646366;fill-opacity:1;fill-rule:nonzero;stroke:none;stroke-width:0.133333" /><path
         id="path1408"
         d="m 1207.8826,1621.5601 h 31.3386 v -6.2 h -31.3386 z"
         style="fill:#474344;fill-opacity:1;fill-rule:nonzero;stroke:none;stroke-width:0.133333" /><path
         id="path1409"
         d="m 1210.1986,1621.5601 h 31.3251 v -6.2 h -31.3251 z"
         style="fill:#252221;fill-opacity:1;fill-rule:nonzero;stroke:none;stroke-width:0.133333" /><path
         id="path1410"
         d="m 1210.1986,1620.7467 h 31.3251 v -0.3604 h -31.3251 z"
         style="fill:#e9e9e9;fill-opacity:1;fill-rule:nonzero;stroke:none;stroke-width:0.133333" /><path
         id="path1411"
         d="m 1212.1173,1621.5601 h -1.9187 v -0.8134 h 3.424 c -0.532,0.2534 -1.0346,0.52 -1.5053,0.8134"
         style="fill:#141211;fill-opacity:1;fill-rule:nonzero;stroke:none;stroke-width:0.133333" /><path
         id="path1412"
         d="m 1214.4013,1620.3867 h -4.2027 v -5.0266 h 31.3254 c 0,0 -17.4507,0.7466 -27.1227,5.0266"
         style="fill:#141211;fill-opacity:1;fill-rule:nonzero;stroke:none;stroke-width:0.133333" /><path
         id="path1413"
         d="m 1213.6226,1620.7467 h -3.424 v -0.36 h 4.2027 c -0.2653,0.12 -0.5253,0.24 -0.7787,0.36"
         style="fill:#646366;fill-opacity:1;fill-rule:nonzero;stroke:none;stroke-width:0.133333" /><path
         id="path1414"
         d="m 1207.8826,1649.5201 h 31.3386 v -6.1865 h -31.3386 z"
         style="fill:#474344;fill-opacity:1;fill-rule:nonzero;stroke:none;stroke-width:0.133333" /><path
         id="path1415"
         d="m 1210.1986,1649.5201 h 31.3251 v -6.1865 h -31.3251 z"
         style="fill:#252221;fill-opacity:1;fill-rule:nonzero;stroke:none;stroke-width:0.133333" /><path
         id="path1416"
         d="m 1210.1986,1648.7201 h 31.3251 v -0.3599 h -31.3251 z"
         style="fill:#e9e9e9;fill-opacity:1;fill-rule:nonzero;stroke:none;stroke-width:0.133333" /><path
         id="path1417"
         d="m 1212.1173,1649.5201 h -1.9187 v -0.8 h 3.424 c -0.5306,0.2533 -1.0346,0.52 -1.5053,0.8"
         style="fill:#141211;fill-opacity:1;fill-rule:nonzero;stroke:none;stroke-width:0.133333" /><path
         id="path1418"
         d="m 1214.4053,1648.3601 h -4.2067 v -5.0267 h 31.3254 c 0,0 -17.444,0.76 -27.1187,5.0267"
         style="fill:#141211;fill-opacity:1;fill-rule:nonzero;stroke:none;stroke-width:0.133333" /><path
         id="path1419"
         d="m 1213.6226,1648.7201 h -3.424 v -0.36 h 4.2067 c -0.2667,0.1066 -0.5267,0.2266 -0.7827,0.36"
         style="fill:#646366;fill-opacity:1;fill-rule:nonzero;stroke:none;stroke-width:0.133333" /><path
         id="path1420"
         d="m 1207.8826,1664.6001 h 31.3386 v -6.1599 h -31.3386 z"
         style="fill:#474344;fill-opacity:1;fill-rule:nonzero;stroke:none;stroke-width:0.133333" /><path
         id="path1421"
         d="m 1210.1986,1664.6001 h 31.3251 v -6.1735 h -31.3251 z"
         style="fill:#252221;fill-opacity:1;fill-rule:nonzero;stroke:none;stroke-width:0.133333" /><path
         id="path1422"
         d="m 1210.1986,1663.8001 h 31.3251 v -0.3469 h -31.3251 z"
         style="fill:#e9e9e9;fill-opacity:1;fill-rule:nonzero;stroke:none;stroke-width:0.133333" /><path
         id="path1423"
         d="m 1212.1173,1664.6001 h -1.9187 v -0.8 h 3.4334 c -0.536,0.2533 -1.0414,0.52 -1.5147,0.8"
         style="fill:#141211;fill-opacity:1;fill-rule:nonzero;stroke:none;stroke-width:0.133333" /><path
         id="path1424"
         d="m 1214.384,1663.4534 h -4.1854 v -5.0267 h 31.3254 c 0,0 -17.4707,0.76 -27.14,5.0267"
         style="fill:#141211;fill-opacity:1;fill-rule:nonzero;stroke:none;stroke-width:0.133333" /><path
         id="path1425"
         d="m 1213.632,1663.8001 h -3.4334 v -0.3467 h 4.1854 c -0.256,0.1067 -0.508,0.2267 -0.752,0.3467"
         style="fill:#646366;fill-opacity:1;fill-rule:nonzero;stroke:none;stroke-width:0.133333" /><path
         id="path1426"
         d="m 1207.8826,1678.5201 h 31.3386 v -6.1599 h -31.3386 z"
         style="fill:#474344;fill-opacity:1;fill-rule:nonzero;stroke:none;stroke-width:0.133333" /><path
         id="path1427"
         d="m 1210.1986,1678.5201 h 31.3251 v -6.1735 h -31.3251 z"
         style="fill:#252221;fill-opacity:1;fill-rule:nonzero;stroke:none;stroke-width:0.133333" /><path
         id="path1428"
         d="m 1210.1986,1677.7201 h 31.3251 v -0.3735 h -31.3251 z"
         style="fill:#e9e9e9;fill-opacity:1;fill-rule:nonzero;stroke:none;stroke-width:0.133333" /><path
         id="path1429"
         d="m 1212.1173,1678.5201 h -1.9187 v -0.8 h 3.4027 c -0.524,0.2533 -1.02,0.52 -1.484,0.8"
         style="fill:#141211;fill-opacity:1;fill-rule:nonzero;stroke:none;stroke-width:0.133333" /><path
         id="path1430"
         d="m 1214.4146,1677.3467 h -4.216 v -5 h 31.3254 c 0,0 -17.4334,0.76 -27.1094,5"
         style="fill:#141211;fill-opacity:1;fill-rule:nonzero;stroke:none;stroke-width:0.133333" /><path
         id="path1431"
         d="m 1213.6013,1677.7201 h -3.4027 v -0.3734 h 4.216 c -0.2773,0.12 -0.548,0.2534 -0.8133,0.3734"
         style="fill:#646366;fill-opacity:1;fill-rule:nonzero;stroke:none;stroke-width:0.133333" /><path
         id="path1432"
         d="m 1207.8826,1705.3201 h 31.3386 v -6.1735 h -31.3386 z"
         style="fill:#474344;fill-opacity:1;fill-rule:nonzero;stroke:none;stroke-width:0.133333" /><path
         id="path1433"
         d="m 1210.1986,1705.3201 h 31.3251 v -6.1735 h -31.3251 z"
         style="fill:#252221;fill-opacity:1;fill-rule:nonzero;stroke:none;stroke-width:0.133333" /><path
         id="path1434"
         d="m 1210.1986,1704.5334 h 31.3251 v -0.387 h -31.3251 z"
         style="fill:#e9e9e9;fill-opacity:1;fill-rule:nonzero;stroke:none;stroke-width:0.133333" /><path
         id="path1435"
         d="m 1212.1173,1705.3201 h -1.9187 v -0.7867 h 3.372 c -0.512,0.2533 -0.9986,0.52 -1.4533,0.7867"
         style="fill:#141211;fill-opacity:1;fill-rule:nonzero;stroke:none;stroke-width:0.133333" /><path
         id="path1436"
         d="m 1214.4133,1704.1467 h -4.2147 v -5 h 31.3254 c 0,0 -17.4347,0.76 -27.1107,5"
         style="fill:#141211;fill-opacity:1;fill-rule:nonzero;stroke:none;stroke-width:0.133333" /><path
         id="path1437"
         d="m 1213.5706,1704.5334 h -3.372 v -0.3867 h 4.2147 c -0.288,0.1334 -0.5693,0.2534 -0.8427,0.3867"
         style="fill:#646366;fill-opacity:1;fill-rule:nonzero;stroke:none;stroke-width:0.133333" /><path
         id="path1438"
         d="m 1207.8826,1719.6401 h 31.3386 v -6.1605 h -31.3386 z"
         style="fill:#474344;fill-opacity:1;fill-rule:nonzero;stroke:none;stroke-width:0.133333" /><path
         id="path1439"
         d="m 1210.1986,1719.6401 h 31.3251 v -6.1605 h -31.3251 z"
         style="fill:#252221;fill-opacity:1;fill-rule:nonzero;stroke:none;stroke-width:0.133333" /><path
         id="path1440"
         d="m 1210.1986,1718.8401 h 31.3251 v -0.3605 h -31.3251 z"
         style="fill:#e9e9e9;fill-opacity:1;fill-rule:nonzero;stroke:none;stroke-width:0.133333" /><path
         id="path1441"
         d="m 1212.1173,1719.6401 h -1.9187 v -0.8 h 3.4027 c -0.5227,0.2533 -1.02,0.52 -1.484,0.8"
         style="fill:#141211;fill-opacity:1;fill-rule:nonzero;stroke:none;stroke-width:0.133333" /><path
         id="path1442"
         d="m 1214.3853,1718.4801 h -4.1867 v -5 h 31.3254 c 0,0 -17.4694,0.7466 -27.1387,5"
         style="fill:#141211;fill-opacity:1;fill-rule:nonzero;stroke:none;stroke-width:0.133333" /><path
         id="path1443"
         d="m 1213.6013,1718.8401 h -3.4027 v -0.36 h 4.1867 c -0.268,0.12 -0.528,0.24 -0.784,0.36"
         style="fill:#646366;fill-opacity:1;fill-rule:nonzero;stroke:none;stroke-width:0.133333" /><path
         id="path1444"
         d="m 1207.8826,1748.5867 h 31.3386 v -6.1729 h -31.3386 z"
         style="fill:#474344;fill-opacity:1;fill-rule:nonzero;stroke:none;stroke-width:0.133333" /><path
         id="path1445"
         d="m 1210.1986,1748.5867 h 31.3251 v -6.1729 h -31.3251 z"
         style="fill:#252221;fill-opacity:1;fill-rule:nonzero;stroke:none;stroke-width:0.133333" /><path
         id="path1446"
         d="m 1210.1986,1747.7867 h 31.3251 v -0.3729 h -31.3251 z"
         style="fill:#e9e9e9;fill-opacity:1;fill-rule:nonzero;stroke:none;stroke-width:0.133333" /><path
         id="path1447"
         d="m 1212.1173,1748.5867 h -1.9187 v -0.8 h 3.4027 c -0.524,0.2534 -1.02,0.52 -1.484,0.8"
         style="fill:#141211;fill-opacity:1;fill-rule:nonzero;stroke:none;stroke-width:0.133333" /><path
         id="path1448"
         d="m 1214.4173,1747.4134 h -4.2187 v -5 h 31.3254 c 0,0 -17.432,0.76 -27.1067,5"
         style="fill:#141211;fill-opacity:1;fill-rule:nonzero;stroke:none;stroke-width:0.133333" /><path
         id="path1449"
         d="m 1213.6013,1747.7867 h -3.4027 v -0.3733 h 4.2187 c -0.2787,0.12 -0.5507,0.2533 -0.816,0.3733"
         style="fill:#646366;fill-opacity:1;fill-rule:nonzero;stroke:none;stroke-width:0.133333" /><path
         id="path1450"
         d="m 1207.8826,1762.2534 h 31.3386 v -6.1729 h -31.3386 z"
         style="fill:#474344;fill-opacity:1;fill-rule:nonzero;stroke:none;stroke-width:0.133333" /><path
         id="path1451"
         d="m 1210.1986,1762.2534 h 31.3251 v -6.1729 h -31.3251 z"
         style="fill:#252221;fill-opacity:1;fill-rule:nonzero;stroke:none;stroke-width:0.133333" /><path
         id="path1452"
         d="m 1210.1986,1761.4534 h 31.3251 v -0.3729 h -31.3251 z"
         style="fill:#e9e9e9;fill-opacity:1;fill-rule:nonzero;stroke:none;stroke-width:0.133333" /><path
         id="path1453"
         d="m 1212.1173,1762.2534 h -1.9187 v -0.8 h 3.4027 c -0.524,0.2533 -1.02,0.52 -1.484,0.8"
         style="fill:#141211;fill-opacity:1;fill-rule:nonzero;stroke:none;stroke-width:0.133333" /><path
         id="path1454"
         d="m 1214.4173,1761.0801 h -4.2187 v -5 h 31.3254 c 0,0 -17.432,0.76 -27.1067,5"
         style="fill:#141211;fill-opacity:1;fill-rule:nonzero;stroke:none;stroke-width:0.133333" /><path
         id="path1455"
         d="m 1213.6013,1761.4534 h -3.4027 v -0.3733 h 4.2187 c -0.2787,0.12 -0.5507,0.2533 -0.816,0.3733"
         style="fill:#646366;fill-opacity:1;fill-rule:nonzero;stroke:none;stroke-width:0.133333" /><path
         id="path1456"
         d="m 1207.8826,1775.0934 h 31.3386 v -6.1599 h -31.3386 z"
         style="fill:#474344;fill-opacity:1;fill-rule:nonzero;stroke:none;stroke-width:0.133333" /><path
         id="path1457"
         d="m 1210.1986,1775.0934 h 31.3251 v -6.1599 h -31.3251 z"
         style="fill:#252221;fill-opacity:1;fill-rule:nonzero;stroke:none;stroke-width:0.133333" /><path
         id="path1458"
         d="m 1210.1986,1774.3067 h 31.3251 v -0.3734 h -31.3251 z"
         style="fill:#e9e9e9;fill-opacity:1;fill-rule:nonzero;stroke:none;stroke-width:0.133333" /><path
         id="path1459"
         d="m 1212.1173,1775.0934 h -1.9187 v -0.7867 h 3.4014 c -0.5227,0.2534 -1.0187,0.52 -1.4827,0.7867"
         style="fill:#141211;fill-opacity:1;fill-rule:nonzero;stroke:none;stroke-width:0.133333" /><path
         id="path1460"
         d="m 1214.416,1773.9334 h -4.2174 v -5 h 31.3254 c 0,0 -17.432,0.7467 -27.108,5"
         style="fill:#141211;fill-opacity:1;fill-rule:nonzero;stroke:none;stroke-width:0.133333" /><path
         id="path1461"
         d="m 1213.6,1774.3067 h -3.4014 v -0.3733 h 4.2174 c -0.2787,0.12 -0.5507,0.24 -0.816,0.3733"
         style="fill:#646366;fill-opacity:1;fill-rule:nonzero;stroke:none;stroke-width:0.133333" /><path
         id="path1462"
         d="m 1240.2026,1786.0801 c -0.8013,0 -1.4506,-0.6534 -1.4506,-1.4534 v -191.2666 c 0,-0.8134 0.6493,-1.48 1.4506,-1.48 0.8014,0 1.4587,0.6666 1.4587,1.48 v 191.2666 c 0,0.8 -0.6573,1.4534 -1.4587,1.4534"
         style="fill:#8f8d8d;fill-opacity:1;fill-rule:nonzero;stroke:none;stroke-width:0.133333" /><path
         id="path1463"
         d="m 1263.0346,1793.3067 h -7.5986 v -200.64 c 0,-2.6666 1.0173,-5.08 2.6773,-6.8933 h 4.9213 0.1947 c 2.836,0 5.1667,2.32 5.1667,5.16 v 197.2 c 0,2.8533 -2.3307,5.1733 -5.1667,5.1733 h -0.1947"
         style="fill:#423f3f;fill-opacity:1;fill-rule:nonzero;stroke:none;stroke-width:0.133333" /><path
         id="path1464"
         d="m 1295.8746,1618.1601 v 180.5333 l 15.0387,-37.5333 v -180.5067 l -15.0387,37.5067"
         style="fill:#200d02;fill-opacity:1;fill-rule:nonzero;stroke:none;stroke-width:0.133333" /><path
         id="path1465"
         d="m 1325.9506,1618.1601 v 180.5333 L 1341,1761.1601 v -180.5067 l -15.0494,37.5067"
         style="fill:#200d02;fill-opacity:1;fill-rule:nonzero;stroke:none;stroke-width:0.133333" /><path
         id="path1466"
         d="m 1282.144,1590.4267 v 170.7334 l 13.7306,37.5333 v -180.5333 l -13.7306,-27.7334"
         style="fill:#423f3f;fill-opacity:1;fill-rule:nonzero;stroke:none;stroke-width:0.133333" /><path
         id="path1467"
         d="m 1341,1580.6534 v 180.5067 l 15.04,37.5333 V 1618.1601 L 1341,1580.6534"
         style="fill:#423f3f;fill-opacity:1;fill-rule:nonzero;stroke:none;stroke-width:0.133333" /><path
         id="path1468"
         d="m 1356.08,1617.9334 v 180.52 l 15.04,-37.5333 v -180.5067 l -15.04,37.52"
         style="fill:#200d02;fill-opacity:1;fill-rule:nonzero;stroke:none;stroke-width:0.133333" /><path
         id="path1469"
         d="m 1371.12,1580.4134 v 180.5067 l 15.04,37.5333 v -180.52 l -15.04,-37.52"
         style="fill:#423f3f;fill-opacity:1;fill-rule:nonzero;stroke:none;stroke-width:0.133333" /><path
         id="path1470"
         d="m 1386.16,1618.1601 v 180.5333 l 15.0533,-37.5333 v -180.5067 l -15.0533,37.5067"
         style="fill:#200d02;fill-opacity:1;fill-rule:nonzero;stroke:none;stroke-width:0.133333" /><path
         id="path1471"
         d="m 1401.2133,1580.6534 v 180.5067 l 15.0267,37.5333 v -180.5333 l -15.0267,-37.5067"
         style="fill:#423f3f;fill-opacity:1;fill-rule:nonzero;stroke:none;stroke-width:0.133333" /><path
         id="path1472"
         d="m 1310.9133,1580.6534 v 180.5067 l 15.0373,37.5333 v -180.5333 l -15.0373,-37.5067"
         style="fill:#423f3f;fill-opacity:1;fill-rule:nonzero;stroke:none;stroke-width:0.133333" /><path
         id="path1473"
         d="m 1293.8973,1607.2401 v 164.6666 c -0.023,11.8534 -10.3107,21.4534 -22.984,21.4534 -3.2613,0 -6.356,-0.64 -9.1547,-1.8 v -204.0534 c 2.7987,-1.1333 5.8934,-1.7866 9.1547,-1.7866 12.6867,0 22.984,9.64 22.984,21.52"
         style="fill:#971d22;fill-opacity:1;fill-rule:nonzero;stroke:none;stroke-width:0.133333" /><path
         id="path1474"
         d="m 1464.3466,1594.3734 v 185.3467 c 0,5.3333 -2.1733,10.2533 -5.8933,14.2533 -5.56,6.0133 -14.5467,9.9467 -24.7067,9.9467 -8.4533,0 -16.0933,-2.72 -21.64,-7.1067 -5.5333,-4.3867 -8.96,-10.4133 -8.96,-17.0933 v -185.3467 c 0,-6.48 3.2,-12.3333 8.44,-16.6933 5.5867,-4.6134 13.4267,-7.52 22.16,-7.52 8.4667,0 16.0934,2.72 21.64,7.1066 5.5467,4.3867 8.96,10.44 8.96,17.1067"
         style="fill:#971d22;fill-opacity:1;fill-rule:nonzero;stroke:none;stroke-width:0.133333" /><path
         id="path1475"
         d="m 1433.7466,1803.9201 c -8.4533,0 -16.0933,-2.72 -21.64,-7.1067 -5.5333,-4.3867 -8.96,-10.4133 -8.96,-17.0933 v -185.3467 c 0,-6.48 3.2,-12.3333 8.44,-16.6933 -3.1866,30.9733 -7.6,97.76 11.28,154.96 -0.7466,0.04 -1.4533,0.2666 -2.0533,0.6 v 0.013 c -1.32,0.7867 -2.2133,2.2267 -2.2133,3.8667 v 0 0 c 0,2.48 2,4.5066 4.48,4.5066 0.8266,0 1.6,-0.2266 2.2533,-0.6266 v 0 0 c 0.1333,-0.08 0.2667,-0.1734 0.3867,-0.2667 1.4666,3.88 3.04,7.6933 4.7333,11.4533 -0.5067,0.72 -0.8,1.6134 -0.8,2.5734 v 0 0 c 0,2.3733 1.8533,4.2933 4.1867,4.4533 6.5066,12.7733 14.6,24.5733 24.6133,34.76 -5.56,6.0133 -14.5467,9.9467 -24.7067,9.9467"
         style="fill:#4e1416;fill-opacity:1;fill-rule:nonzero;stroke:none;stroke-width:0.133333" /><path
         id="path1476"
         d="m 1427.7333,1633.8667 c 0,1.6667 -0.9067,3.12 -2.24,3.8934 -0.6667,0.3866 -1.4267,0.6 -2.2533,0.6 -2.4667,0 -4.4667,-2 -4.4667,-4.4934 0,-1.6266 0.88,-3.0933 2.2,-3.8533 0.6667,-0.4 1.4533,-0.6267 2.2667,-0.6267 2.4933,0 4.4933,2.0134 4.4933,4.48"
         style="fill:#ffffff;fill-opacity:1;fill-rule:nonzero;stroke:none;stroke-width:0.133333" /><path
         id="path1477"
         d="m 1423.24,1638.3601 c -2.4667,0 -4.4667,-2 -4.4667,-4.4934 0,-1.6266 0.88,-3.0933 2.2,-3.8533 -0.24,1.9333 -0.08,5.2933 4.52,7.7467 -0.6667,0.3866 -1.4267,0.6 -2.2533,0.6"
         style="fill:#d2d1d2;fill-opacity:1;fill-rule:nonzero;stroke:none;stroke-width:0.133333" /><path
         id="path1478"
         d="m 1438.6,1619.3467 c 0,1.68 -0.88,3.0934 -2.2267,3.8667 -0.6533,0.3867 -1.4267,0.6133 -2.2533,0.6133 -2.4667,0 -4.48,-2 -4.48,-4.48 0,-1.6533 0.8933,-3.1066 2.2266,-3.8666 0.6667,-0.3867 1.44,-0.6134 2.2534,-0.6134 2.4933,0 4.48,2.0134 4.48,4.48"
         style="fill:#ffffff;fill-opacity:1;fill-rule:nonzero;stroke:none;stroke-width:0.133333" /><path
         id="path1479"
         d="m 1434.12,1623.8267 c -2.4667,0 -4.48,-2 -4.48,-4.48 0,-1.6533 0.8933,-3.1066 2.2266,-3.8666 -0.2533,1.9466 -0.08,5.28 4.5067,7.7333 -0.6533,0.3867 -1.4267,0.6133 -2.2533,0.6133"
         style="fill:#d2d1d2;fill-opacity:1;fill-rule:nonzero;stroke:none;stroke-width:0.133333" /><path
         id="path1480"
         d="m 1450.52,1633.8667 c 0,1.6667 -0.8934,3.12 -2.2267,3.8934 -0.6533,0.3866 -1.4267,0.6 -2.24,0.6 -2.4933,0 -4.4933,-2 -4.4933,-4.4934 0,-1.6266 0.9066,-3.0933 2.2266,-3.8533 0.6534,-0.4 1.44,-0.6267 2.2667,-0.6267 2.48,0 4.4667,2.0134 4.4667,4.48"
         style="fill:#ffffff;fill-opacity:1;fill-rule:nonzero;stroke:none;stroke-width:0.133333" /><path
         id="path1481"
         d="m 1446.0533,1638.3601 c -2.4933,0 -4.4933,-2 -4.4933,-4.4934 0,-1.6266 0.9066,-3.0933 2.2266,-3.8533 -0.2666,1.9333 -0.093,5.2933 4.5067,7.7467 -0.6533,0.3866 -1.4267,0.6 -2.24,0.6"
         style="fill:#d2d1d2;fill-opacity:1;fill-rule:nonzero;stroke:none;stroke-width:0.133333" /><path
         id="path1482"
         d="m 1438.6,1645.0667 c 0,1.6534 -0.88,3.12 -2.2267,3.88 -0.6533,0.4 -1.4267,0.6134 -2.2533,0.6134 -2.4667,0 -4.48,-2.0134 -4.48,-4.4934 0,-1.6533 0.8933,-3.0933 2.2266,-3.8666 0.6667,-0.3867 1.44,-0.6134 2.2534,-0.6134 2.4933,0 4.48,2.0267 4.48,4.48"
         style="fill:#ffffff;fill-opacity:1;fill-rule:nonzero;stroke:none;stroke-width:0.133333" /><path
         id="path1483"
         d="m 1434.12,1649.5601 c -2.4667,0 -4.48,-2.0134 -4.48,-4.4934 0,-1.6533 0.8933,-3.0933 2.2266,-3.8666 -0.2533,1.9466 -0.08,5.2933 4.5067,7.7466 -0.6533,0.4 -1.4267,0.6134 -2.2533,0.6134"
         style="fill:#d2d1d2;fill-opacity:1;fill-rule:nonzero;stroke:none;stroke-width:0.133333" /><path
         id="path1484"
         d="m 1427.7333,1655.2134 c 0,1.64 -0.9067,3.08 -2.24,3.8667 -0.6667,0.3733 -1.4267,0.6 -2.2533,0.6 -2.4667,0 -4.4667,-2 -4.4667,-4.4667 0,-1.6667 0.88,-3.12 2.2,-3.88 0.6667,-0.4 1.4533,-0.6267 2.2667,-0.6267 2.4933,0 4.4933,2.0267 4.4933,4.5067"
         style="fill:#ffffff;fill-opacity:1;fill-rule:nonzero;stroke:none;stroke-width:0.133333" /><path
         id="path1485"
         d="m 1423.24,1659.6801 c -2.4667,0 -4.4667,-2 -4.4667,-4.4667 0,-1.6667 0.88,-3.12 2.2,-3.88 -0.24,1.9333 -0.08,5.2933 4.52,7.7467 -0.6667,0.3733 -1.4267,0.6 -2.2533,0.6"
         style="fill:#d2d1d2;fill-opacity:1;fill-rule:nonzero;stroke:none;stroke-width:0.133333" /><path
         id="path1486"
         d="m 1449.8266,1657.1334 c 0,1.6533 -0.8933,3.08 -2.24,3.88 -0.64,0.3733 -1.4266,0.5867 -2.2533,0.5867 -2.4667,0 -4.4667,-1.9867 -4.4667,-4.4667 0,-1.68 0.88,-3.1067 2.2267,-3.88 0.6533,-0.3867 1.4267,-0.6133 2.24,-0.6133 2.4933,0 4.4933,2.0133 4.4933,4.4933"
         style="fill:#ffffff;fill-opacity:1;fill-rule:nonzero;stroke:none;stroke-width:0.133333" /><path
         id="path1487"
         d="m 1445.3333,1661.6001 c -2.4667,0 -4.4667,-1.9867 -4.4667,-4.4667 0,-1.68 0.88,-3.1067 2.2267,-3.88 -0.2667,1.9467 -0.1067,5.2933 4.4933,7.76 -0.64,0.3733 -1.4266,0.5867 -2.2533,0.5867"
         style="fill:#d2d1d2;fill-opacity:1;fill-rule:nonzero;stroke:none;stroke-width:0.133333" /><path
         id="path1488"
         d="m 1438.6,1668.3201 c 0,1.6533 -0.88,3.0933 -2.2267,3.88 -0.6533,0.3866 -1.4267,0.5866 -2.2533,0.5866 -2.4667,0 -4.48,-1.9866 -4.48,-4.4666 0,-1.6534 0.8933,-3.1067 2.2266,-3.8667 0.6667,-0.4133 1.44,-0.64 2.2534,-0.64 2.4933,0 4.48,2.0133 4.48,4.5067"
         style="fill:#ffffff;fill-opacity:1;fill-rule:nonzero;stroke:none;stroke-width:0.133333" /><path
         id="path1489"
         d="m 1434.12,1672.7867 c -2.4667,0 -4.48,-1.9866 -4.48,-4.4666 0,-1.6534 0.8933,-3.1067 2.2266,-3.8667 -0.2533,1.92 -0.08,5.28 4.5067,7.7467 -0.6533,0.3866 -1.4267,0.5866 -2.2533,0.5866"
         style="fill:#d2d1d2;fill-opacity:1;fill-rule:nonzero;stroke:none;stroke-width:0.133333" /><path
         id="path1490"
         d="m 1427.7333,1680.8001 c 0,1.6533 -0.9067,3.1066 -2.24,3.88 -0.6667,0.4 -1.4267,0.6 -2.2533,0.6 -2.4667,0 -4.4667,-2 -4.4667,-4.48 0,-1.64 0.88,-3.0934 2.2,-3.8667 0.6667,-0.3733 1.4533,-0.6133 2.2667,-0.6133 2.4933,0 4.4933,2.0266 4.4933,4.48"
         style="fill:#ffffff;fill-opacity:1;fill-rule:nonzero;stroke:none;stroke-width:0.133333" /><path
         id="path1491"
         d="m 1423.24,1685.2801 c -2.4667,0 -4.4667,-2 -4.4667,-4.48 0,-1.64 0.88,-3.0934 2.2,-3.8667 -0.24,1.9467 -0.08,5.2933 4.52,7.7467 -0.6667,0.4 -1.4267,0.6 -2.2533,0.6"
         style="fill:#d2d1d2;fill-opacity:1;fill-rule:nonzero;stroke:none;stroke-width:0.133333" /><path
         id="path1492"
         d="m 1449.8266,1681.1201 c 0,1.6533 -0.8933,3.08 -2.24,3.88 -0.64,0.3733 -1.4266,0.5866 -2.2533,0.5866 -2.4667,0 -4.4667,-1.9866 -4.4667,-4.4666 0,-1.6667 0.88,-3.1067 2.2267,-3.8934 0.6533,-0.3733 1.4267,-0.6 2.24,-0.6 2.4933,0 4.4933,2.0134 4.4933,4.4934"
         style="fill:#ffffff;fill-opacity:1;fill-rule:nonzero;stroke:none;stroke-width:0.133333" /><path
         id="path1493"
         d="m 1445.3333,1685.5867 c -2.4667,0 -4.4667,-1.9866 -4.4667,-4.4666 0,-1.6667 0.88,-3.1067 2.2267,-3.8934 -0.2667,1.96 -0.1067,5.3067 4.4933,7.7734 -0.64,0.3733 -1.4266,0.5866 -2.2533,0.5866"
         style="fill:#d2d1d2;fill-opacity:1;fill-rule:nonzero;stroke:none;stroke-width:0.133333" /><path
         id="path1494"
         d="m 1439.7333,1693.8801 c 0,1.6666 -0.8933,3.1066 -2.2267,3.8933 -0.6533,0.36 -1.4133,0.5867 -2.2533,0.5867 -2.4667,0 -4.48,-2 -4.48,-4.48 0,-1.6534 0.8933,-3.0934 2.2133,-3.8934 0.68,-0.36 1.4534,-0.5866 2.2667,-0.5866 2.4933,0 4.48,2 4.48,4.48"
         style="fill:#ffffff;fill-opacity:1;fill-rule:nonzero;stroke:none;stroke-width:0.133333" /><path
         id="path1495"
         d="m 1435.2533,1698.3601 c -2.4667,0 -4.48,-2 -4.48,-4.48 0,-1.6534 0.8933,-3.0934 2.2133,-3.8934 -0.24,1.9734 -0.067,5.32 4.52,7.7867 -0.6533,0.36 -1.4133,0.5867 -2.2533,0.5867"
         style="fill:#d2d1d2;fill-opacity:1;fill-rule:nonzero;stroke:none;stroke-width:0.133333" /><path
         id="path1496"
         d="m 1427.7333,1707.8934 c 0,1.6533 -0.9067,3.0933 -2.24,3.8667 -0.6667,0.3866 -1.4267,0.5866 -2.2533,0.5866 -2.4667,0 -4.4667,-1.9866 -4.4667,-4.4533 0,-1.6667 0.88,-3.12 2.2,-3.8933 0.6667,-0.3867 1.4533,-0.6 2.2667,-0.6 2.4933,0 4.4933,2 4.4933,4.4933"
         style="fill:#ffffff;fill-opacity:1;fill-rule:nonzero;stroke:none;stroke-width:0.133333" /><path
         id="path1497"
         d="m 1423.24,1712.3467 c -2.4667,0 -4.4667,-1.9866 -4.4667,-4.4533 0,-1.6667 0.88,-3.12 2.2,-3.8933 -0.24,1.9466 -0.08,5.3066 4.52,7.76 -0.6667,0.3866 -1.4267,0.5866 -2.2533,0.5866"
         style="fill:#d2d1d2;fill-opacity:1;fill-rule:nonzero;stroke:none;stroke-width:0.133333" /><path
         id="path1498"
         d="m 1449.8266,1707.8934 c 0,1.6533 -0.8933,3.0933 -2.24,3.8667 -0.64,0.3866 -1.4266,0.5866 -2.2533,0.5866 -2.4667,0 -4.4667,-1.9866 -4.4667,-4.4533 0,-1.6667 0.88,-3.12 2.2267,-3.8933 0.6533,-0.3867 1.4267,-0.6 2.24,-0.6 2.4933,0 4.4933,2 4.4933,4.4933"
         style="fill:#ffffff;fill-opacity:1;fill-rule:nonzero;stroke:none;stroke-width:0.133333" /><path
         id="path1499"
         d="m 1445.3333,1712.3467 c -2.4667,0 -4.4667,-1.9866 -4.4667,-4.4533 0,-1.6667 0.88,-3.12 2.2267,-3.8933 -0.2667,1.9466 -0.1067,5.3066 4.4933,7.76 -0.64,0.3866 -1.4266,0.5866 -2.2533,0.5866"
         style="fill:#d2d1d2;fill-opacity:1;fill-rule:nonzero;stroke:none;stroke-width:0.133333" /><path
         id="path1500"
         d="m 1427.5733,1737.1201 c 0,1.6666 -0.92,3.1066 -2.24,3.88 -0.6533,0.4 -1.4267,0.6266 -2.2533,0.6266 -2.48,0 -4.48,-2.0266 -4.48,-4.5066 0,-1.64 0.8933,-3.08 2.2133,-3.8667 v -0.013 c 0.6667,-0.3734 1.44,-0.6 2.2667,-0.6 2.4666,0 4.4933,2 4.4933,4.48"
         style="fill:#ffffff;fill-opacity:1;fill-rule:nonzero;stroke:none;stroke-width:0.133333" /><path
         id="path1501"
         d="m 1423.08,1741.6267 c -2.48,0 -4.48,-2.0266 -4.48,-4.5066 0,-1.64 0.8933,-3.08 2.2133,-3.8667 -0.2533,1.9333 -0.093,5.2933 4.52,7.7467 -0.6533,0.4 -1.4267,0.6266 -2.2533,0.6266"
         style="fill:#d2d1d2;fill-opacity:1;fill-rule:nonzero;stroke:none;stroke-width:0.133333" /><path
         id="path1502"
         d="m 1449.6533,1737.1201 c 0,1.6666 -0.8933,3.1066 -2.24,3.88 -0.6533,0.4 -1.4133,0.6266 -2.24,0.6266 -2.48,0 -4.4667,-2.0266 -4.4667,-4.5066 0,-1.64 0.88,-3.08 2.2134,-3.8667 v -0.013 c 0.6533,-0.3734 1.4266,-0.6 2.2533,-0.6 2.48,0 4.48,2 4.48,4.48"
         style="fill:#ffffff;fill-opacity:1;fill-rule:nonzero;stroke:none;stroke-width:0.133333" /><path
         id="path1503"
         d="m 1445.1733,1741.6267 c -2.48,0 -4.4667,-2.0266 -4.4667,-4.5066 0,-1.64 0.88,-3.08 2.2134,-3.8667 -0.2534,1.9333 -0.093,5.2933 4.4933,7.7467 -0.6533,0.4 -1.4133,0.6266 -2.24,0.6266"
         style="fill:#d2d1d2;fill-opacity:1;fill-rule:nonzero;stroke:none;stroke-width:0.133333" /><path
         id="path1504"
         d="m 1438.6133,1754.7601 c 0,1.6666 -0.8933,3.0933 -2.2267,3.8533 -0.6666,0.3867 -1.4266,0.6133 -2.24,0.6133 -2.48,0 -4.4933,-2 -4.4933,-4.4666 0,-1.6667 0.8933,-3.12 2.2267,-3.8934 0.6666,-0.3733 1.44,-0.6266 2.2666,-0.6266 2.48,0 4.4667,2.0266 4.4667,4.52"
         style="fill:#ffffff;fill-opacity:1;fill-rule:nonzero;stroke:none;stroke-width:0.133333" /><path
         id="path1505"
         d="m 1434.1466,1759.2267 c -0.1066,0 -0.2133,-0.013 -0.3066,-0.013 -2.3334,-0.16 -4.1867,-2.08 -4.1867,-4.4533 0,-1.6667 0.8933,-3.12 2.2267,-3.8934 -0.2534,1.96 -0.093,5.2934 4.5066,7.7467 -0.6666,0.3867 -1.4266,0.6133 -2.24,0.6133"
         style="fill:#d2d1d2;fill-opacity:1;fill-rule:nonzero;stroke:none;stroke-width:0.133333" /><path
         id="path1506"
         d="m 1438.6133,1722.6134 c 0,1.6533 -0.8933,3.0933 -2.2267,3.88 -0.6666,0.3867 -1.4266,0.6 -2.24,0.6 -2.48,0 -4.4933,-1.9867 -4.4933,-4.48 0,-1.6533 0.8933,-3.0933 2.2267,-3.88 0.6666,-0.3733 1.44,-0.6 2.2666,-0.6 2.48,0 4.4667,1.9867 4.4667,4.48"
         style="fill:#ffffff;fill-opacity:1;fill-rule:nonzero;stroke:none;stroke-width:0.133333" /><path
         id="path1507"
         d="m 1434.1466,1727.0934 c -2.48,0 -4.4933,-1.9867 -4.4933,-4.48 0,-1.6533 0.8933,-3.0933 2.2267,-3.88 -0.2534,1.9733 -0.093,5.3067 4.5066,7.76 -0.6666,0.3867 -1.4266,0.6 -2.24,0.6"
         style="fill:#d2d1d2;fill-opacity:1;fill-rule:nonzero;stroke:none;stroke-width:0.133333" /><path
         id="path1508"
         d="m 1270.9133,1793.3601 c -1.852,0 -3.652,-0.2134 -5.3747,-0.6 -1.308,-0.2934 -2.572,-0.6934 -3.78,-1.2 v -134.0934 l 0.1507,-0.04 c 0,0 6.9547,74.2934 31.988,114.48 -0.01,4.24 -1.3307,8.2 -3.6067,11.52 -4.0853,5.9734 -11.2386,9.9334 -19.3773,9.9334"
         style="fill:#4e1416;fill-opacity:1;fill-rule:nonzero;stroke:none;stroke-width:0.133333" /></g></g></svg>
