<svg xmlns="http://www.w3.org/2000/svg" width="1024" height="1024" viewBox="0 0 1024 1024">
  <!-- Saxofone: bocal, tudel, corpo curvo e campana voltada para cima. -->
  <circle cx="300" cy="90" r="46" fill="#121214"/>
  <rect x="300" y="66" width="150" height="48" rx="24" fill="#121214" transform="rotate(34 300 90)"/>
  <!-- Corpo reto -->
  <rect x="404" y="200" width="96" height="470" rx="26" fill="#F59E0B"/>
  <!-- Curva inferior -->
  <path d="M404 600h96v70c0 90 62 152 152 152h30v-96h-30c-62 0-96-40-96-96z" fill="#F59E0B"/>
  <!-- Campana -->
  <path d="M652 570h150c0 140-40 256-150 256z" fill="#F59E0B"/>
  <ellipse cx="802" cy="698" rx="36" ry="128" fill="#FBBF24"/>
  <!-- Chaves -->
  <circle cx="452" cy="272" r="24" fill="#121214"/>
  <circle cx="452" cy="352" r="24" fill="#121214"/>
  <circle cx="452" cy="432" r="24" fill="#121214"/>
  <circle cx="452" cy="512" r="24" fill="#121214"/>
  <rect x="500" y="250" width="70" height="34" rx="16" fill="#121214"/>
  <rect x="500" y="330" width="70" height="34" rx="16" fill="#121214"/>
  <rect x="500" y="410" width="70" height="34" rx="16" fill="#121214"/>
</svg>
