<svg xmlns="http://www.w3.org/2000/svg" width="1024" height="1024" viewBox="0 0 1024 1024"><path fill="#121214" d="M193.899 143.874c-5.899 11.666-10.194 19.22-20.248 28.155-17.061 15.163-35.685 21.345-58.208 20.284a76.44 76.44 0 0 1-54.082-25.733c-28.8-32.038-26.264-80.319 6.13-108.84a80.85 80.85 0 0 1 59.221-19.495c23.882 1.75 42.157 13.806 57.451 31.488 68.484-15.281 137.74-36.132 202.347 3.478 37.101 22.746 57.705 54.514 68.311 95.904 4.875-.3 8.945-1.033 14.064-1.038a62 62 0 0 1 44.014 18.2c41.148 41.422 11.78 107.236-47.655 107.006l.434 36.257c19.601-.281 34.971 4.083 49.645 17.768a61.58 61.58 0 0 1 19.429 43.194 61.97 61.97 0 0 1-16.939 44.63c-13.629 14.474-29.628 19.869-49.075 20.47-.168 12.928.277 26.885.375 39.913 4.12.141 8.245.227 12.349.777 48.942 6.469 73.5 62.506 42.638 101.837-12.126 15.454-28.625 21.888-47.604 24.048-.191 12.199.031 25.178.018 37.395-.01 9.986-.268 27.659 1.759 37.051a51.1 51.1 0 0 0 7.624 17.788c8.184 12.228 20.184 20.779 34.709 23.619a56.17 56.17 0 0 0 42.033-8.755c26.687-18.421 23.571-47.505 23.152-75.68-.245-16.487 1.43-31.317 3.899-47.531 14.741-96.798 105.118-139.019 194.797-121.895a245.1 245.1 0 0 1 156.992 104.775 252.2 252.2 0 0 1 41.949 137.047c.039 7.49-.266 20.557-1.715 27.901-1.612 1.467-3.603 3.895-1.286 5.577.393.286-1.845 4.605-1.398 5.773.815 2.129.158 3.583-1.183 5.03-.004.221 1.264 4.079-.337 4.302-3.193.444.628 1.258-.594 4.62-.502.365-2.015-1.115-2.522 3.809-.215 2.09-1.404 5.7-2.052 7.682l-.097.042c-.897-2.42 2.994-11.31 3.25-14.211.119-1.352 1.192-9.589 2.059-10.16l.162.041c.114.401.072 1.679.497 1.854.989-.897-1.102-6.919.265-9.51.327-.619 1.212-3.998-.374-4.582-1.038 5.652-1.594 11.341-2.688 17.087l-.489 2.5c-.309 1.589-.686 3.17-1.05 4.748l-1.01 4.243c-.699 2.917-1.75 6.291-2.333 9.147-6.16 19.935-10.74 28.458-18.87 46.689.133.207.223.488.46.579.702-.167 1.579-3.249 2.567-3.405.892.783-1.263 1.545.685 2.077.116.211-.476 2.403-.549 2.75-1.137 5.247-21.825 36.111-26.626 40.962.056-3.841 2.013-6.635 3.105-10.004-2.012 2.12-7.238 8.916-9.395 11.674-3.485 4.456-8.47 9.115-11.578 13.055 1.798 1.235 1.82 1.329 2.189 3.467-1.35 1.378-4.088 4.337-5.495 5.42-2.799.7-2.97 1.013-5.457-.2-24.391 22.519-47.965 39.101-79.127 51.585a275 275 0 0 1-19.315 6.804c-1.273.4-10.288 3.106-10.993 3.472l.442.486c5.732-.203 33.699-10.18 38.513-13.24l.632.256c-5.927 6.247-20.169 8.018-21.701 10.946-.773.338-1.284.522-2.088.786a266.46 266.46 0 0 1-123.287 9.293c-11.871-1.831-23.221-5.411-34.832-7.685-1.974-.387-15.855 2.913-18.759 3.5a222 222 0 0 1-18.799 2.918c-48.13 5.529-94.418.485-137.705-21.757-55.727-28.635-97.109-80.253-114.988-140.047-9.975-33.359-9.942-52.267-10.208-86.454l-.325-49.254-.665-126.236-1.883-247.326-.341-57.412c-.128-19.269 1.12-46.678-4.736-64.271a77.73 77.73 0 0 0-38.949-45.171c-27.375-13.42-53.407-9.376-80.986-.471-8.97 2.896-18.384 5.112-27.57 8.204"/><path fill="#F59E0B" d="M703.497 489.314c17.62-3.497 31.96-5.195 50.076-4.418 60.56 2.596 118.247 30.707 159.294 74.825a245.2 245.2 0 0 1 66.496 158.287c.584 14.055-.764 22.8-1.26 36.151-1.038 5.652-1.594 11.341-2.688 17.087l-.489 2.5c-.309 1.589-.686 3.17-1.05 4.748l-1.01 4.243c-.699 2.917-1.75 6.291-2.333 9.147-6.16 19.935-10.74 28.458-18.87 46.689.133.207.223.488.46.579.702-.167 1.579-3.249 2.567-3.405.892.783-1.263 1.545.685 2.077.116.211-.476 2.403-.549 2.75-1.137 5.247-21.825 36.111-26.626 40.962.056-3.841 2.013-6.635 3.105-10.004-2.012 2.12-7.238 8.916-9.395 11.674-3.485 4.456-8.47 9.115-11.578 13.055 1.798 1.235 1.82 1.329 2.189 3.467-1.35 1.378-4.088 4.337-5.495 5.42-2.799.7-2.97 1.013-5.457-.2-24.391 22.519-47.965 39.101-79.127 51.585a275 275 0 0 1-19.315 6.804c-1.273.4-10.288 3.106-10.993 3.472-23.328 4.62-37.523 7.818-62.137 8.028-56.823.483-118.889-18.543-160.589-58.243-16.068-15.297-27.155-37.658-27.038-59.991.18-34.498 23.071-61.977 54.665-73.76 13.01-4.852 25.841-6.004 38.738-12.105 12.598-5.959 24.684-13.919 34.307-23.975 28.629-29.915 40.216-72.734 39.98-113.042a65.67 65.67 0 0 0 37.402-15.78 61.84 61.84 0 0 0 20.734-42.194 63.92 63.92 0 0 0-15.999-46.59c-13.218-14.86-29.136-20.034-48.311-21.121-.336-6.254-.338-12.462-.389-18.722"/><path fill="#121214" d="M951.663 838.573c.133.207.223.488.46.579.702-.167 1.579-3.249 2.567-3.405.892.783-1.263 1.545.685 2.077.116.211-.476 2.403-.549 2.75-1.137 5.247-21.825 36.111-26.626 40.962.056-3.841 2.013-6.635 3.105-10.004.259-.637 6.587-10.131 7.438-11.09 4.715-5.31 9.032-17.215 12.92-21.869m-41.331 57.688c1.798 1.235 1.82 1.329 2.189 3.467-1.35 1.378-4.088 4.337-5.495 5.42-2.799.7-2.97 1.013-5.457-.2a274 274 0 0 0 8.763-8.687"/><path fill="#F59E0B" d="M115.289 41.594c40.838-2.705 76.118 28.25 78.747 69.094 2.628 40.843-28.393 76.066-69.242 78.618-40.74 2.545-75.849-28.377-78.47-69.112-2.622-40.736 28.234-75.902 68.965-78.6M465.355 500.49c32.391-4.737 62.477 17.712 67.16 50.11s-17.815 62.447-50.221 67.076c-32.33 4.619-62.293-17.815-66.965-50.137s17.712-62.323 50.026-67.049m-2.807-328.398c32.232-3.185 60.985 20.26 64.352 52.473s-19.917 61.097-52.11 64.645c-32.451 3.577-61.616-19.933-65.01-52.404-3.394-32.47 20.28-61.502 52.768-64.714m4.577 161.664c32.229-2.487 60.426 21.5 63.139 53.711 2.713 32.212-21.076 60.576-53.267 63.515-32.513 2.967-61.222-21.11-63.962-53.643-2.74-32.532 21.539-61.072 54.09-63.583m237.284 178.711c32.422-.395 59.019 25.581 59.39 58.003s-25.624 59-58.047 59.347c-32.388.347-58.932-25.616-59.302-58.004-.371-32.388 25.571-58.951 57.959-59.346"/><path fill="#2A1F1D" fill-opacity=".98" d="M792.134 966.809c.705-.366 9.72-3.072 10.993-3.472a275 275 0 0 0 19.315-6.804c31.162-12.484 54.736-29.066 79.127-51.585 2.487 1.213 2.658.9 5.457.2-21.785 22.53-53.002 42.631-81.867 54.601-3.403 1.412-11.705 4.647-15.139 5.508 1.532-2.928 15.774-4.699 21.701-10.946l-.632-.256c-4.814 3.06-32.781 13.037-38.513 13.24z"/><path fill="#2A1F1D" fill-opacity=".976" d="M970.533 791.884c.103 1.283.145 2.118.397 3.37l.059 1.824c-.473 2.291-1.315 7.237-3.304 8.484-1.673 1.049-.815 1.786-.589 3.946-1.131 3.173-.91 2.991-3.002 6.021-.802 1.682-.972 2.263-1.55 4.032-.449 1.037-.218.874-.357 1.928-.589 4.471-3.133 2.751-3.297 7.507l-.031.7c-.119.381-.27.668-.161 1.03.275.194.498.109 1.033.382a128 128 0 0 1-2.995 6.339c-.739 1.474-.951 1.888-1.91 3.127.073-.347.665-2.539.549-2.75-1.948-.532.207-1.294-.685-2.077-.988.156-1.865 3.238-2.567 3.405-.237-.091-.327-.372-.46-.579 8.13-18.231 12.71-26.754 18.87-46.689"/><path fill="#2A1F1D" fill-opacity=".984" d="M910.332 896.261c3.108-3.94 8.093-8.599 11.578-13.055 2.157-2.758 7.383-9.554 9.395-11.674-1.092 3.369-3.049 6.163-3.105 10.004-1.285 3-12.885 15.22-15.679 18.192-.369-2.138-.391-2.232-2.189-3.467"/><path fill="#2A1F1D" fill-opacity=".941" d="M978.103 754.159c1.586.584.701 3.963.374 4.582-1.367 2.591.724 8.613-.265 9.51-.425-.175-.383-1.453-.497-1.854l-.162-.041c-.867.571-1.94 8.808-2.059 10.16-.256 2.901-4.147 11.791-3.25 14.211l.097-.042c.648-1.982 1.837-5.592 2.052-7.682.507-4.924 2.02-3.444 2.522-3.809 1.222-3.362-2.599-4.176.594-4.62 1.601-.223.333-4.081.337-4.302 1.341-1.447 1.998-2.901 1.183-5.03-.447-1.168 1.791-5.487 1.398-5.773-2.317-1.682-.326-4.11 1.286-5.577-.347 4.061-.846 8.359-1.537 12.371l-1.212 7.232c-.569 3.36-3.061 14.73-4.391 17.535-1.965.414-3.096 2.435-3.643 4.224-.252-1.252-.294-2.087-.397-3.37.583-2.856 1.634-6.23 2.333-9.147l1.01-4.243c.364-1.578.741-3.159 1.05-4.748l.489-2.5c1.094-5.746 1.65-11.435 2.688-17.087"/><path fill="#2A1F1D" fill-opacity=".949" d="M970.989 797.078c.355.784.064.579.722.957.442-.434.168-1.19.593-1.71.243-.088.262-.025.61.058-.343 2.731-2.167 7.384-3.181 10.047-2.181-.991-2.147 1.336-2.637 3.078-.226-2.16-1.084-2.897.589-3.946 1.989-1.247 2.831-6.193 3.304-8.484"/><path fill="#2A1F1D" fill-opacity=".918" d="M967.096 809.508c.49-1.742.456-4.069 2.637-3.078-1.332 3.624-3.05 7.829-4.211 11.392-.439-1.444-.071-1.991-1.428-2.293 2.092-3.03 1.871-2.848 3.002-6.021"/><path fill="#2A1F1D" fill-opacity=".933" d="M962.544 819.561c.493.98.679 1.194 1.36 2.113-.339 1.257-1.583 3.987-2.21 5.156-1.959-1.231-2.064 1.07-2.835 2.866l.031-.7c.164-4.756 2.708-3.036 3.297-7.507.139-1.054-.092-.891.357-1.928"/><path fill="#2A1F1D" fill-opacity=".89" d="M970.93 795.254c.547-1.789 1.678-3.81 3.643-4.224-.761 2.909-.472 2.549-1.659 5.353-.348-.083-.367-.146-.61-.058-.425.52-.151 1.276-.593 1.71-.658-.378-.367-.173-.722-.957z"/><path fill="#2A1F1D" fill-opacity=".886" d="M964.094 815.529c1.357.302.989.849 1.428 2.293-.565 1.169-1.094 2.618-1.618 3.852-.681-.919-.867-1.133-1.36-2.113.578-1.769.748-2.35 1.55-4.032"/><path fill="#2A1F1D" fill-opacity=".918" d="M958.859 829.696c.771-1.796.876-4.097 2.835-2.866-.616 1.654-1.164 2.705-1.963 4.278-.535-.273-.758-.188-1.033-.382-.109-.362.042-.649.161-1.03"/></svg>