<svg xmlns="http://www.w3.org/2000/svg" width="1024" height="1024" viewBox="0 0 1024 1024">
  <!-- Violino em vista frontal: corpo com cintura, escala, cravelhas e arco. -->
  <g>
    <!-- Arco -->
    <rect x="120" y="150" width="800" height="26" rx="13" fill="#7C3AED" transform="rotate(-14 512 163)"/>
    <rect x="112" y="128" width="46" height="70" rx="16" fill="#121214" transform="rotate(-14 512 163)"/>
  </g>
  <!-- Braço e cabeça -->
  <rect x="470" y="250" width="84" height="240" rx="18" fill="#121214"/>
  <rect x="492" y="262" width="40" height="220" rx="14" fill="#3a3a40"/>
  <path d="M512 196c40 0 62 26 62 58 0 30-22 44-50 44h-24c-28 0-50-14-50-44 0-32 22-58 62-58z" fill="#121214"/>
  <circle cx="470" cy="238" r="15" fill="#7C3AED"/>
  <circle cx="554" cy="238" r="15" fill="#7C3AED"/>
  <circle cx="470" cy="284" r="15" fill="#7C3AED"/>
  <circle cx="554" cy="284" r="15" fill="#7C3AED"/>
  <!-- Corpo com cintura -->
  <path d="M512 470c78 0 132 30 152 84 14 38 4 70-24 86 30 22 44 58 44 100 0 96-76 168-172 168S340 836 340 740c0-42 14-78 44-100-28-16-38-48-24-86 20-54 74-84 152-84z" fill="#121214"/>
  <!-- Cordas / espelho -->
  <rect x="486" y="470" width="52" height="200" rx="10" fill="#3a3a40"/>
  <rect x="470" y="700" width="84" height="24" rx="8" fill="#7C3AED"/>
  <!-- F-holes -->
  <path d="M418 640c22 8 22 60 4 96-8 16-22 22-32 14-12-10-6-30 4-38-14-2-18-18-10-34 8-16 22-26 34-38z" fill="#7C3AED"/>
  <path d="M606 640c-22 8-22 60-4 96 8 16 22 22 32 14 12-10 6-30-4-38 14-2 18-18 10-34-8-16-22-26-34-38z" fill="#7C3AED"/>
</svg>
